<svg width="25" height="25" viewBox="0 0 25 25" fill="none" xmlns="http://www.w3.org/2000/svg">
<path d="M2.75 7.25C2.75 15.534 9.466 22.25 17.75 22.25H20C20.5967 22.25 21.169 22.0129 21.591 21.591C22.0129 21.169 22.25 20.5967 22.25 20V18.628C22.25 18.112 21.899 17.662 21.398 17.537L16.975 16.431C16.535 16.321 16.073 16.486 15.802 16.848L14.832 18.141C14.55 18.517 14.063 18.683 13.622 18.521C11.9849 17.9191 10.4982 16.9686 9.26478 15.7352C8.03141 14.5018 7.08087 13.0151 6.479 11.378C6.317 10.937 6.483 10.45 6.859 10.168L8.152 9.198C8.515 8.927 8.679 8.464 8.569 8.025L7.463 3.602C7.40214 3.35869 7.26172 3.1427 7.06405 2.98834C6.86638 2.83397 6.6228 2.75008 6.372 2.75H5C4.40326 2.75 3.83097 2.98705 3.40901 3.40901C2.98705 3.83097 2.75 4.40326 2.75 5V7.25Z" stroke="#D3CDC4" stroke-width="1.5" stroke-linecap="round" stroke-linejoin="round"/>
</svg>
