<svg width="25" height="25" viewBox="0 0 25 25" fill="none" xmlns="http://www.w3.org/2000/svg">
<path d="M22.25 7.25V17.75C22.25 18.3467 22.0129 18.919 21.591 19.341C21.169 19.7629 20.5967 20 20 20H5C4.40326 20 3.83097 19.7629 3.40901 19.341C2.98705 18.919 2.75 18.3467 2.75 17.75V7.25M22.25 7.25C22.25 6.65326 22.0129 6.08097 21.591 5.65901C21.169 5.23705 20.5967 5 20 5H5C4.40326 5 3.83097 5.23705 3.40901 5.65901C2.98705 6.08097 2.75 6.65326 2.75 7.25M22.25 7.25V7.493C22.25 7.87715 22.1517 8.25491 21.9644 8.5903C21.7771 8.92569 21.5071 9.20754 21.18 9.409L13.68 14.024C13.3252 14.2425 12.9167 14.3582 12.5 14.3582C12.0833 14.3582 11.6748 14.2425 11.32 14.024L3.82 9.41C3.49292 9.20854 3.22287 8.92669 3.03557 8.5913C2.84827 8.25591 2.74996 7.87815 2.75 7.494V7.25" stroke="#D3CDC4" stroke-width="1.5" stroke-linecap="round" stroke-linejoin="round"/>
</svg>
