<svg width="25" height="25" viewBox="0 0 25 25" fill="none" xmlns="http://www.w3.org/2000/svg">
<path d="M18.157 16.8559L13.914 21.0989C13.7284 21.2847 13.5081 21.432 13.2656 21.5326C13.023 21.6331 12.763 21.6848 12.5005 21.6848C12.238 21.6848 11.978 21.6331 11.7354 21.5326C11.4929 21.432 11.2726 21.2847 11.087 21.0989L6.843 16.8559C5.72422 15.7371 4.96234 14.3116 4.65369 12.7598C4.34504 11.208 4.50349 9.59944 5.109 8.13766C5.71452 6.67587 6.7399 5.42647 8.05548 4.54743C9.37107 3.6684 10.9178 3.19922 12.5 3.19922C14.0822 3.19922 15.6289 3.6684 16.9445 4.54743C18.2601 5.42647 19.2855 6.67587 19.891 8.13766C20.4965 9.59944 20.655 11.208 20.3463 12.7598C20.0377 14.3116 19.2758 15.7371 18.157 16.8559V16.8559Z" stroke="#6C5C56" stroke-linecap="round" stroke-linejoin="round"/>
<path d="M15.5 11.1987C15.5 11.9944 15.1839 12.7574 14.6213 13.3201C14.0587 13.8827 13.2956 14.1987 12.5 14.1987C11.7044 14.1987 10.9413 13.8827 10.3787 13.3201C9.81607 12.7574 9.5 11.9944 9.5 11.1987C9.5 10.4031 9.81607 9.64002 10.3787 9.07741C10.9413 8.5148 11.7044 8.19873 12.5 8.19873C13.2956 8.19873 14.0587 8.5148 14.6213 9.07741C15.1839 9.64002 15.5 10.4031 15.5 11.1987V11.1987Z" stroke="#6C5C56" stroke-linecap="round" stroke-linejoin="round"/>
</svg>
