<svg width="25" height="25" viewBox="0 0 25 25" fill="none" xmlns="http://www.w3.org/2000/svg">
<path d="M15.5 9.19873H19.25M15.5 12.1987H19.25M15.5 15.1987H19.25M5 19.6987H20C20.5967 19.6987 21.169 19.4617 21.591 19.0397C22.0129 18.6178 22.25 18.0455 22.25 17.4487V6.94873C22.25 6.35199 22.0129 5.7797 21.591 5.35774C21.169 4.93578 20.5967 4.69873 20 4.69873H5C4.40326 4.69873 3.83097 4.93578 3.40901 5.35774C2.98705 5.7797 2.75 6.35199 2.75 6.94873V17.4487C2.75 18.0455 2.98705 18.6178 3.40901 19.0397C3.83097 19.4617 4.40326 19.6987 5 19.6987ZM11 9.57373C11 9.81996 10.9515 10.0638 10.8573 10.2913C10.763 10.5187 10.6249 10.7254 10.4508 10.8996C10.2767 11.0737 10.07 11.2118 9.84253 11.306C9.61505 11.4002 9.37123 11.4487 9.125 11.4487C8.87877 11.4487 8.63495 11.4002 8.40747 11.306C8.17998 11.2118 7.97328 11.0737 7.79917 10.8996C7.62506 10.7254 7.48695 10.5187 7.39273 10.2913C7.2985 10.0638 7.25 9.81996 7.25 9.57373C7.25 9.07645 7.44754 8.59954 7.79917 8.24791C8.15081 7.89628 8.62772 7.69873 9.125 7.69873C9.62228 7.69873 10.0992 7.89628 10.4508 8.24791C10.8025 8.59954 11 9.07645 11 9.57373ZM12.294 15.9097C11.3183 16.4294 10.2295 16.7004 9.124 16.6987C8.0192 16.7001 6.9311 16.4291 5.956 15.9097C6.19429 15.261 6.62594 14.701 7.19267 14.3054C7.75939 13.9098 8.43387 13.6977 9.125 13.6977C9.81613 13.6977 10.4906 13.9098 11.0573 14.3054C11.6241 14.701 12.0557 15.261 12.294 15.9097Z" stroke="#6C5C56" stroke-linecap="round" stroke-linejoin="round"/>
</svg>
