<svg width="24" height="25" viewBox="0 0 24 25" fill="none" xmlns="http://www.w3.org/2000/svg">
<path d="M3 5.5C3 4.96957 3.21071 4.46086 3.58579 4.08579C3.96086 3.71071 4.46957 3.5 5 3.5H8.28C8.48979 3.50016 8.69422 3.5663 8.86436 3.68905C9.03449 3.8118 9.1617 3.98496 9.228 4.184L10.726 8.677C10.8019 8.90534 10.7929 9.15339 10.7007 9.37564C10.6085 9.5979 10.4393 9.77945 10.224 9.887L7.967 11.017C9.07332 13.4655 11.0345 15.4267 13.483 16.533L14.613 14.276C14.7205 14.0607 14.9021 13.8915 15.1244 13.7993C15.3466 13.7071 15.5947 13.6981 15.823 13.774L20.316 15.272C20.5152 15.3383 20.6885 15.4657 20.8112 15.636C20.934 15.8064 21.0001 16.011 21 16.221V19.5C21 20.0304 20.7893 20.5391 20.4142 20.9142C20.0391 21.2893 19.5304 21.5 19 21.5H18C9.716 21.5 3 14.784 3 6.5V5.5Z" stroke="#6C5C56" stroke-width="1.5" stroke-linecap="round" stroke-linejoin="round"/>
</svg>
