<?xml version="1.0" standalone="no"?>
<!DOCTYPE svg PUBLIC "-//W3C//DTD SVG 1.1//EN" "http://www.w3.org/Graphics/SVG/1.1/DTD/svg11.dtd">
<svg version="1.1" xmlns="http://www.w3.org/2000/svg" xmlns:xlink="http://www.w3.org/1999/xlink"><metadata>This SVG WebFont was generated by YouWorkForThem.
</metadata><defs><font horiz-adv-x="0" id="ywftsvg"><font-face ascent="800" bbox="-61 -259 1217 893" cap-height="700" descent="-200" font-family="" font-stretch="normal" font-weight="400" panose-1="0 0 0 0 0 0 0 0 0 0" underline-position="0" underline-thickness="0" unicode-range="U+0020-2212" units-per-em="1000" x-height="500"/><missing-glyph d="M410 800v-1000h-317v1000h317zM167 -131h166v33h-102l70 47h32v33h-166v-33h70l-70 -47v-33zM167 5h166v113h-166v-113zM167 178h166v113h-100v-56h34v23h33v-47h-100v80h-33v-113zM167 313h166v100h-33v-66h-133v-34zM167 370h100v70h66v33h-166v-33h66v-37h-66v-33z M167 500h166v34h-66v70h-100v-104zM167 630h166v33h-66v37h66v33h-165v-33h65v-37h-66v-33zM200 38v47h100v-47h-100zM200 534v36h33v-36h-33z" horiz-adv-x="500"/><glyph d="M410 800v-1000h-317v1000h317zM167 -131h166v33h-102l70 47h32v33h-166v-33h70l-70 -47v-33zM167 5h166v113h-166v-113zM167 178h166v113h-100v-56h34v23h33v-47h-100v80h-33v-113zM167 313h166v100h-33v-66h-133v-34zM167 370h100v70h66v33h-166v-33h66v-37h-66v-33z M167 500h166v34h-66v70h-100v-104zM167 630h166v33h-66v37h66v33h-165v-33h65v-37h-66v-33zM200 38v47h100v-47h-100zM200 534v36h33v-36h-33z" glyph-name=".notdef" horiz-adv-x="500"/><glyph glyph-name="glyph1"/><glyph glyph-name="glyph2" horiz-adv-x="333"/><glyph glyph-name="space" horiz-adv-x="500" unicode=" "/><glyph glyph-name="space" horiz-adv-x="500" unicode=" "/><glyph d="M194 167q-3 -1 -6 0h-1q-4 2 -4 6l-20 542q0 5 5 5h45q5 0 5 -5l-20 -542q0 -4 -4 -6zM150 39q0 17 10.5 28t27.5 11q18 0 28.5 -11t10.5 -28t-11 -28t-28 -11t-27.5 11t-10.5 28z" glyph-name="exclam" horiz-adv-x="327" unicode="!"/><glyph d="M59 597q-5 -4 -7 1l-1 1q-2 2 1 5q27 37 20 99q0 6 5 6h33q5 0 5 -4q3 -67 -56 -108zM129 599q-2 2 1 5q27 37 20 99q0 6 5 6h33q5 0 5 -4q3 -67 -56 -108q-5 -4 -7 1z" glyph-name="quotedbl" horiz-adv-x="243" unicode="&quot;"/><glyph d="M384 0q-6 0 -3 5l88 224h-262l-90 -226q-1 -3 -4 -3h-28q-5 0 -3 5l88 224h-140q-6 0 -3 5l1 3q1 3 4 3h143l94 240h-151q-6 0 -3 5l1 3q1 3 4 3h154l81 206q1 3 4 3h30q5 0 3 -5l-81 -204h262l81 206q1 3 4 3h30q6 0 3 -5l-81 -204h129q5 0 3 -5l-1 -3q-1 -3 -4 -3h-131 l-96 -240h141q5 0 3 -5l-1 -3q-1 -3 -4 -3h-143l-90 -226q-1 -3 -4 -3h-28zM211 240h263l94 240h-261z" glyph-name="numbersign" horiz-adv-x="769" unicode="#"/><glyph d="M241 -50v132q-60 4 -108 29t-72 63q-2 3 1 6l3 3q3 1 5 -1q25 -34 70 -57t101 -27v271q-38 15 -58 23.5t-50 26t-43.5 34t-23 41.5t-5.5 55q7 50 56.5 77t123.5 24v100h16v-101q53 -4 98.5 -30t68.5 -61q2 -3 -2 -5l-2 -3q-3 -2 -6 1q-22 31 -65.5 54.5t-91.5 27.5v-237 q109 -43 145 -69q57 -43 52 -102q-7 -73 -63 -108.5t-134 -34.5v-132h-16zM95 545q-6 -50 32 -81.5t114 -61.5v232q-58 2 -100 -23t-46 -66zM257 98q58 1 105 30.5t52 80.5q5 56 -35.5 88.5t-121.5 64.5v-264z" glyph-name="dollar" horiz-adv-x="514" unicode="$"/><glyph d="M108 0l442 694h10l-443 -694h-9zM50 580q0 54 41.5 90.5t98.5 36.5t99 -36.5t43 -90.5t-41.5 -90.5t-100.5 -36.5q-57 0 -98.5 36.5t-41.5 90.5zM100 580q-1 -52 25 -83t64 -30q42 1 68.5 31.5t26.5 81.5t-26 81.5t-67 30.5q-39 0 -64.5 -30t-26.5 -82zM339 128 q0 54 41.5 90.5t98.5 36.5t99 -36.5t43 -90.5t-41.5 -90.5t-100.5 -36.5q-57 0 -98.5 36.5t-41.5 90.5zM389 128q-1 -52 25 -83t64 -30q42 1 68.5 31.5t26.5 81.5t-26 81.5t-67 30.5q-39 0 -64.5 -30t-26.5 -82z" glyph-name="percent" horiz-adv-x="672" unicode="%"/><glyph d="M296 -15q-66 0 -118.5 22.5t-80.5 60t-37.5 83t9.5 95t62 92.5q19 18 38 34.5t31 26t32.5 25t30.5 23.5q-2 3 -10.5 15t-11.5 16t-10.5 14.5t-10 15.5t-8 14.5t-8 15.5t-6.5 15t-5 15.5t-2.5 15t-1.5 16.5q0 44 31 78.5t83 34.5q50 0 81.5 -34t31.5 -75q0 -42 -27 -83 t-95 -100l202 -302q30 55 8 160q-3 15 13 17l28 2q26 -114 -37 -200l59 -92q4 -6 0 -6h-8q-3 0 -5 3l-54 84q-80 -102 -204 -102zM159 298q-40 -42 -47.5 -96t13 -98.5t66.5 -75.5t106 -31q116 0 191 110l-204 306q-71 -58 -125 -115zM209 599q0 -34 12.5 -62t51.5 -82 q115 81 115 149q0 42 -23.5 70t-61.5 28t-66 -33t-28 -70z" glyph-name="ampersand" horiz-adv-x="681" unicode="&amp;"/><glyph d="M67 596q-4 -3 -6 1l-1 1q-1 2 1 7q28 35 20 99q-2 5 4 5h34q5 0 5 -4q3 -67 -57 -109z" glyph-name="quotesingle" horiz-adv-x="184" unicode="'"/><glyph d="M281 -94q0 -6 -6 -4q-93 38 -154 166.5t-61 286.5q0 160 61.5 286t155.5 158q4 2 6 -3v-1q2 -5 -2 -6q-76 -39 -122 -160t-45 -274q4 -153 50 -278t113 -163q4 -4 4 -6v-2z" glyph-name="parenleft" horiz-adv-x="345" unicode="("/><glyph d="M70 -98q-5 -2 -5 4v2q0 4 3 6q67 39 113 164t50 277q1 156 -46 279t-120 155q-5 2 -3 7q2 4 6 3q94 -32 155.5 -157.5t61.5 -286.5q0 -158 -61 -286.5t-154 -166.5z" glyph-name="parenright" horiz-adv-x="345" unicode=")"/><glyph d="M141 534q-7 -5 -9 4l-4 17q-2 9 -11 10q-4 1 -5 -3l-6 -24q-2 -7 -8 -3l-27 15q-1 1 -3 2q-3 1 -2 2l17 18q3 3 3.5 7.5t-2 7t-5.5 1.5l-21 -7q-8 -2 -8 6l1 29q0 7 7 5l16 -4q6 -1 11 3.5t1 8.5l-16 15q-5 5 2 9l25 15q6 4 8 -3l7 -19q2 -6 8 -6t8 6l4 18q2 8 9 3 l24 -14q5 -3 2 -8l-13 -16q-4 -5 -1 -10t9 -3l19 5q7 2 7 -6l-1 -29q0 -7 -7 -5l-15 5q-4 1 -8 -0.5t-5.5 -4.5t0.5 -6l16 -17q2 -1 1.5 -4.5t-2.5 -4.5z" glyph-name="asterisk" horiz-adv-x="238" unicode="*"/><glyph d="M273 170v183h-183v15h183v182h15v-182h182v-15h-182v-183h-15z" glyph-name="plus" horiz-adv-x="560" unicode="+"/><glyph d="M116 -87q-4 -3 -6 1l-1 1q-1 3 1 7q28 35 20 99q-2 5 4 5h34q5 0 5 -4q3 -67 -57 -109z" glyph-name="comma" horiz-adv-x="273" unicode=","/><glyph d="M205 332q-5 0 -5 5v6q0 5 5 5h641q5 0 5 -5v-6q0 -5 -5 -5h-641z" glyph-name="hyphen" horiz-adv-x="1051" unicode="-"/><glyph d="M144 1q-19 0 -31.5 12.5t-12.5 29.5q0 18 12.5 30t31.5 12t32 -12t13 -30t-13 -30t-32 -12z" glyph-name="period" horiz-adv-x="289" unicode="."/><glyph d="M50 -100l376 900h13l-378 -900h-11z" glyph-name="slash" horiz-adv-x="488" unicode="/"/><glyph d="M365 -19q-135 0 -225 105t-90 262q0 158 90 263t225 105q134 0 223.5 -105t89.5 -263q0 -157 -89.5 -262t-223.5 -105zM112 348q0 -149 72 -249.5t181 -102.5q111 -2 183 99t68 253q-4 151 -75.5 251.5t-175.5 101.5q-109 1 -181 -99.5t-72 -253.5z" glyph-name="zero" horiz-adv-x="728" unicode="0"/><glyph d="M28 571q-5 -2 -5 2t3 6l217 132q4 2 6 2q3 0 3 -5v-703q0 -5 -5 -5h-45q-5 0 -5 5v641z" glyph-name="one" horiz-adv-x="312" unicode="1"/><glyph d="M85 0q2 0 1 1h-2q-2 -1 0 -1h1zM80 5q0 21 3 40q8 70 46 123.5t81 83t113 76t115 86.5q35 32 45.5 81t-4 94t-59 77.5t-108.5 32.5q-55 0 -104 -31.5t-76 -73.5q-2 -3 -7 -1l-26 9q-4 1 0 7q43 49 100.5 76.5t112.5 27.5q59 0 109 -21.5t80 -57t41.5 -78.5t-5 -91 t-59.5 -88q-39 -36 -92.5 -66.5t-96 -51.5t-83.5 -47.5t-69.5 -67.5t-38.5 -98h443q5 0 5 -5v-36q0 -5 -5 -5h-456l-1 1v1q-4 2 -4 3zM83 6v3v6v-9z" glyph-name="two" horiz-adv-x="627" unicode="2"/><glyph d="M274 -14q-117 0 -218 87q-5 5 -1 7l30 16q6 2 7 1q86 -94 182 -95q94 -1 155 56.5t61 140.5q0 108 -78 155.5t-211 22.5q-16 -2 -20 -2q-8 0 -5 5l5 7q3 5 6 5q115 6 171 59t56 122q0 55 -36.5 90.5t-96.5 34.5q-85 -1 -139 -79q-2 -4 -8 -1l-26 9q-5 2 0 7q77 79 173 79 q83 0 136 -39.5t53 -99.5q0 -58 -45 -107t-121 -66q101 9 173.5 -51t72.5 -142q0 -96 -80.5 -159t-195.5 -63z" glyph-name="three" horiz-adv-x="604" unicode="3"/><glyph d="M448 0q-5 0 -5 5v132h-386q-6 0 -6 2l2 2t1 2l399 564q1 3 6 3h34q5 0 5 -5v-557h98q5 0 5 -5v-1q0 -5 -5 -5h-98v-132q0 -5 -5 -5h-45zM77 148h366v515z" glyph-name="four" horiz-adv-x="651" unicode="4"/><glyph d="M288 -4q-68 0 -119 21t-104 67q-4 4 1 7l27 15q5 2 7 0q45 -48 88 -71.5t100 -23.5q78 0 132 54t61 142q4 48 -16.5 95t-60 76t-88 38t-107 -20t-110.5 -96q-3 -2 -5 4l59 391q0 5 6 5h322q7 0 5 -5l-7 -39q-2 -5 -5 -5h-307l-43 -274q63 50 139.5 57.5t138 -20 t103 -82.5t39.5 -121q-2 -90 -77.5 -152.5t-178.5 -62.5z" glyph-name="five" horiz-adv-x="604" unicode="5"/><glyph d="M477 700q9 -2 9 -6v-3q0 -7 -6 -6q-138 34 -239 -74.5t-107 -299.5q19 52 59.5 84.5t78 43t76.5 10.5q116 0 181 -62t65 -173q0 -97 -69.5 -162t-173.5 -65q-106 0 -180.5 59.5t-86.5 167.5q-12 113 9.5 211t70.5 167t130.5 99t182.5 9zM160 214q-1 -93 52.5 -154 t137.5 -61q80 0 133.5 62t52.5 154q-1 103 -50.5 161.5t-137.5 59.5q-83 -1 -135 -60.5t-53 -161.5z" glyph-name="six" horiz-adv-x="674" unicode="6"/><glyph d="M177 0q-5 0 -5 5q1 148 89 340.5t205 315.5h-401q-5 0 -5 5v39q0 5 5 5h453q9 0 3 -6q-125 -158 -208.5 -357t-84.5 -342q0 -5 -5 -5h-46z" glyph-name="seven" horiz-adv-x="586" unicode="7"/><glyph d="M336 -18q-121 0 -198.5 55t-77.5 146q0 72 53.5 117.5t162.5 70.5q-81 34 -121.5 86t-32.5 109q9 66 66 107.5t148 41.5q95 0 153 -45t58 -116q0 -115 -169 -166q112 -41 168 -88t56 -110q0 -87 -76.5 -147.5t-189.5 -60.5zM108 152q12 -74 76 -116.5t152 -42.5 q97 0 157 50.5t53 124.5q-6 57 -64 105.5t-161 80.5q-10 3 -30 11l-1 -1q-207 -61 -182 -212zM180 571q0 -55 39 -99t110 -67l32 -11q154 64 146 170q-5 62 -52.5 101.5t-118.5 39.5q-74 0 -115 -37t-41 -97z" glyph-name="eight" horiz-adv-x="662" unicode="8"/><glyph d="M197 -4q-9 2 -9 6v3q0 7 6 6q138 -34 239 74.5t107 299.5q-19 -52 -59.5 -84.5t-78 -43t-76.5 -10.5q-116 0 -181 62t-65 173q0 97 69.5 162t173.5 65q106 0 180.5 -59.5t86.5 -167.5q12 -113 -9.5 -211t-70.5 -167t-130.5 -99t-182.5 -9zM138 481q1 -103 50.5 -161.5 t137.5 -59.5q83 1 135 60.5t53 161.5q1 93 -52.5 154t-137.5 61q-80 0 -133.5 -62t-52.5 -154z" glyph-name="nine" horiz-adv-x="674" unicode="9"/><glyph d="M236 375q-15 0 -25.5 9t-10.5 23t10 23t26 9t26.5 -9t10.5 -23t-10.5 -23t-26.5 -9zM200 207q0 14 10 23t26 9t26.5 -9t10.5 -23t-10.5 -23t-26.5 -9q-15 0 -25.5 9t-10.5 23z" glyph-name="colon" horiz-adv-x="373" unicode=":"/><glyph d="M244 156q-13 0 -22.5 9t-9.5 22q0 14 9 22.5t23 8.5q15 0 24 -8.5t9 -22.5q0 -13 -9 -22t-24 -9zM204 -32q-2 2 1 7q28 35 20 99q-2 5 4 5h34q5 0 5 -4q3 -67 -57 -109q-3 -2 -6 1z" glyph-name="semicolon" horiz-adv-x="389" unicode=";"/><glyph d="M53 250q-9 8 0 17l207 166h18l-166 -175l166 -175h-18z" glyph-name="less" horiz-adv-x="328" unicode="&lt;"/><glyph d="M50 83l166 175l-166 175h18l207 -166q9 -9 0 -17l-207 -167h-18z" glyph-name="greater" horiz-adv-x="328" unicode=">"/><glyph d="M231 158q-4 0 -5 4q-4 18 -4 35.5t3 33t10.5 31.5t15 28.5t19.5 27.5t22 26t25 25t26 23.5t26.5 23.5t25.5 23q42 38 43.5 101t-43 113.5t-121.5 50.5q-109 0 -174 -89q-4 -3 -7 0l-5 5q-3 3 0 7q27 48 74.5 77.5t111.5 29.5q76 0 133.5 -36t81.5 -88.5t8 -116 t-75 -113.5q-24 -20 -60 -47t-53 -41t-36 -34.5t-26.5 -43t-8.5 -51.5q0 -5 -5 -5h-2zM198 39q0 17 10.5 28t27.5 11q18 0 28.5 -11t10.5 -28t-11 -28t-28 -11t-27.5 11t-10.5 28z" glyph-name="question" horiz-adv-x="552" unicode="?"/><glyph d="M438 -103q-96 0 -180.5 48t-136 132.5t-51.5 182.5q0 149 110.5 255.5t257.5 106.5q142 0 241 -93t106 -236q0 -63 -14.5 -110t-38.5 -72.5t-48.5 -38t-50.5 -15.5q-55 -6 -74.5 11t-19.5 74v-10q-28 -52 -89.5 -72.5t-118 1t-68.5 78.5q-9 43 12.5 86t80.5 67 q76 32 183 32v40q0 93 -115 93q-32 0 -63 -10t-47 -26l-8 9q22 20 56 33t62 13q77 0 119 -37.5t42 -104.5v-155q0 -66 9 -87t39 -21q62 5 100 63t38 135q0 147 -99.5 244t-233.5 97q-135 0 -244 -103.5t-109 -247.5q0 -96 52 -178t133 -127.5t168 -45.5q148 0 232 96l11 -13 q-107 -94 -243 -94zM301 150q7 -45 48.5 -63.5t96 -2t93.5 63.5v165q-61 0 -92 -6.5t-63 -23.5q-96 -52 -83 -133z" glyph-name="at" horiz-adv-x="855" unicode="@"/><glyph d="M651 0q-4 0 -6 4l-279 632l-162 -383h298l5 -11h-307l-101 -238q-2 -4 -6 -4h-7q-5 0 -3 6l296 690q1 4 5 4h13q4 0 6 -4l301 -690q2 -6 -3 -6h-50z" glyph-name="A" horiz-adv-x="787" unicode="A"/><glyph d="M80 695q0 5 5 5h50l179 -1q106 -1 166 -42.5t62 -115.5v-3v-2q-1 -60 -40.5 -100t-110.5 -55q113 -14 176 -61.5t65 -122.5v-3v-3q-2 -93 -75 -143t-202 -49l-270 1q-5 0 -5 5v690zM135 18h220q104 0 162 46.5t60 129.5q-2 84 -74.5 131t-201.5 47h-166v-354zM135 386 h166q91 0 143 40.5t53 112.5q-1 69 -49 107.5t-134 38.5l-179 1v-300z" glyph-name="B" horiz-adv-x="712" unicode="B"/><glyph d="M431 -12q-151 0 -251 106t-100 265q0 152 100.5 252t252.5 100q97 0 167 -48t113 -126q3 -6 -4 -6h-34q-5 0 -6 3q-91 162 -236 162q-129 0 -213 -97.5t-84 -239.5q0 -150 83.5 -252.5t211.5 -102.5q62 0 126 38t105 100q2 3 6 3h38q7 0 3 -6q-50 -72 -125.5 -111.5 t-152.5 -39.5z" glyph-name="C" horiz-adv-x="788" unicode="C"/><glyph d="M85 0q-5 0 -5 5v690q0 5 5 5h194q193 0 302 -90t109 -251q0 -169 -108.5 -264t-302.5 -95h-194zM135 17h145q164 0 258 88t98 246q1 157 -94.5 245.5t-266.5 89.5l-140 1v-670z" glyph-name="D" horiz-adv-x="770" unicode="D"/><glyph d="M80 695q0 5 5 5h436q5 0 5 -5v-1q0 -5 -5 -5h-386v-279h306q5 0 5 -5v-1q0 -5 -5 -5h-306v-388h406q5 0 5 -5v-1q0 -5 -5 -5h-456q-5 0 -5 5v690z" glyph-name="E" horiz-adv-x="626" unicode="E"/><glyph d="M85 0q-5 0 -5 5v690q0 5 5 5h456q5 0 5 -5v-2q0 -5 -5 -5h-406v-278h256q5 0 5 -5v-2q0 -5 -5 -5h-256v-393q0 -5 -5 -5h-45z" glyph-name="F" horiz-adv-x="626" unicode="F"/><glyph d="M441 -14q-154 0 -257.5 107t-103.5 266q0 152 101 254t252 102q89 0 161 -39t113 -109q3 -6 -4 -6h-32q-5 0 -6 3q-41 63 -102.5 98t-129.5 35q-127 0 -212 -98.5t-85 -239.5q0 -149 87.5 -252.5t217.5 -103.5q73 0 134 39.5t96 105.5v166h-164q-5 0 -5 5v2q0 5 5 5h214 q5 0 5 -5v-173q-37 -75 -112.5 -118.5t-172.5 -43.5z" glyph-name="G" horiz-adv-x="807" unicode="G"/><glyph d="M80 5v690q0 5 5 5h45q5 0 5 -5v-330h412v-11h-412v-349q0 -5 -5 -5h-45q-5 0 -5 5zM577 5v690q0 5 5 5h45q5 0 5 -5v-690q0 -5 -5 -5h-45q-5 0 -5 5z" glyph-name="H" horiz-adv-x="712" unicode="H"/><glyph d="M85 0q-5 0 -5 5v690q0 5 5 5h45q5 0 5 -5v-690q0 -5 -5 -5h-45z" glyph-name="I" horiz-adv-x="215" unicode="I"/><glyph d="M283 -9q-87 0 -152 56t-67 138q0 5 5 5h28q5 0 5 -5q2 -76 52 -127t129 -51q87 0 130.5 55.5t43.5 147.5v485q0 5 5 5h45q5 0 5 -5v-485q0 -100 -64.5 -159.5t-164.5 -59.5z" glyph-name="J" horiz-adv-x="592" unicode="J"/><glyph d="M80 5v690q0 5 5 5h45q5 0 5 -5v-371l373 373q3 3 6 3h6q3 0 5.5 -2t0.5 -4l-308 -309l390 -379q6 -6 -3 -6h-54q-5 0 -7 2l-361 348l-48 -48v-297q0 -5 -5 -5h-45q-5 0 -5 5z" glyph-name="K" horiz-adv-x="694" unicode="K"/><glyph d="M85 0q-5 0 -5 5v690q0 5 5 5h45q5 0 5 -5v-684h406q5 0 5 -5v-1q0 -5 -5 -5h-456z" glyph-name="L" horiz-adv-x="626" unicode="L"/><glyph d="M418 8q-1 -3 -3.5 -3t-3.5 3l-317 663v-666q0 -5 -5 -5h-4q-5 0 -5 5v690q0 5 5 5h5h1h35q4 0 6 -4l302 -618l276 618q2 4 6 4h49q5 0 5 -5v-690q0 -5 -5 -5h-45q-5 0 -5 5v658z" glyph-name="M" horiz-adv-x="852" unicode="M"/><glyph d="M80 695q0 5 5 5h61q4 0 6 -3l469 -614v612q0 5 5 5h4q5 0 5 -5v-690q0 -5 -5 -5h-19l-517 682v-677q0 -5 -5 -5h-4q-5 0 -5 5v690z" glyph-name="N" horiz-adv-x="715" unicode="N"/><glyph d="M444 -19q-156 0 -260 105t-104 262q0 158 104 263t260 105q155 0 258.5 -105t103.5 -263q0 -157 -103.5 -262t-258.5 -105zM139 348q0 -148 87 -249t218 -103q134 -2 220.5 99t82.5 253q-4 151 -91 251.5t-212 101.5q-131 2 -218 -99t-87 -254z" glyph-name="O" horiz-adv-x="886" unicode="O"/><glyph d="M85 0q-5 0 -5 5v690q0 5 5 5h194q160 0 250.5 -59.5t90.5 -165.5q0 -111 -90.5 -173.5t-250.5 -62.5h-144v-234q0 -5 -5 -5h-45zM135 250h145q131 0 206.5 58t79.5 162q1 103 -76 161t-215 59l-140 1v-441z" glyph-name="P" horiz-adv-x="700" unicode="P"/><glyph d="M444 -19q-156 0 -260 105t-104 262q0 158 104 263t260 105q155 0 258.5 -105t103.5 -263q0 -103 -46.5 -186t-126.5 -131q59 -61 118 -77q4 -1 4 -5q0 -3 -5 -3q-83 1 -152 67q-70 -32 -154 -32zM139 348q0 -148 87 -249t218 -103q74 -1 138 33q-10 11 -41.5 46.5 t-48.5 52t-49.5 37.5t-67.5 29q-4 1 -4 5q0 3 6 3q24 -1 45.5 -6t41.5 -16t34 -19t33.5 -26t27.5 -26t29.5 -30.5t26.5 -28.5q64 46 99 124t33 174q-4 151 -91 251.5t-212 101.5q-131 2 -218 -99t-87 -254z" glyph-name="Q" horiz-adv-x="886" unicode="Q"/><glyph d="M85 0q-5 0 -5 5v690q0 5 5 5h234q132 0 205 -52t73 -145t-68.5 -146.5t-193.5 -57.5q47 -33 119 -123.5t105 -119.5q43 -37 111 -46q4 0 4 -5t-5 -5q-68 0 -124 31q-40 22 -76.5 57.5t-78 86.5t-61.5 72q-1 1 -7 8t-8.5 9t-9.5 8t-12.5 8.5t-15 7t-19 6.5t-22.5 3.5 t-28 1.5h-72v-294q0 -5 -5 -5h-45zM135 310h185q103 0 161.5 51t61.5 142q1 88 -59 137t-169 50l-180 1v-381z" glyph-name="R" horiz-adv-x="754" unicode="R"/><glyph d="M354 -11q-79 0 -151 30t-121 82q-4 5 1 7l27 12q1 1 4 0.5t4 -1.5q43 -54 106 -84.5t130 -30.5q97 0 160 36t68 96q6 65 -43.5 108t-183.5 78q-157 40 -216.5 87.5t-51.5 125.5q6 77 81.5 128.5t181.5 50.5q161 -3 254 -115q5 -5 -2 -7l-25 -8q-6 -2 -9 1 q-89 114 -218 114q-95 0 -155 -41t-63 -109q-3 -55 50.5 -95t192.5 -75q147 -37 203 -84.5t48 -130.5q-7 -75 -85 -125t-187 -50z" glyph-name="S" horiz-adv-x="706" unicode="S"/><glyph d="M671 700q5 0 5 -5v-1q0 -5 -5 -5h-259v-684q0 -5 -5 -5h-46q-5 0 -5 5v684h-271q-5 0 -5 5v1q0 5 5 5h586z" glyph-name="T" horiz-adv-x="756" unicode="T"/><glyph d="M367 -6q-126 0 -206.5 71t-80.5 179v451q0 5 5 5h46q5 0 5 -5v-439q0 -105 64.5 -174.5t166.5 -69.5q111 0 181 73.5t70 184.5v425q0 5 5 5h4q5 0 5 -5v-425v-2q-1 -119 -75 -196.5t-190 -77.5z" glyph-name="U" horiz-adv-x="712" unicode="U"/><glyph d="M390 0q-4 0 -6 4l-301 690q-2 6 3 6h57q4 0 6 -4l278 -634l272 634q1 1 -2 3l-1 1h16q5 0 3 -6l-295 -690q-2 -4 -6 -4h-24z" glyph-name="V" horiz-adv-x="798" unicode="V"/><glyph d="M816 0q-3 0 -5 4l-184 475l-208 -475q-2 -4 -5 -4h-35q-3 0 -5 4l-293 690q-3 6 4 6h55q3 0 5 -4l277 -643l196 450l-74 191q-2 6 6 6h52q3 0 5 -4l244 -641l265 641q2 4 3 4h16q4 0 1 -6l-289 -690l-2 -4h-29z" glyph-name="W" horiz-adv-x="1212" unicode="W"/><glyph d="M576 0q-4 0 -6 3l-222 315l-223 -315q-1 -3 -6 -3h-13q-7 0 -3 6l233 330l-252 358q-4 6 3 6h56q5 0 6 -3l219 -315l222 315q2 3 6 3h15q7 0 3 -6l-234 -330l249 -358q4 -6 -3 -6h-50z" glyph-name="X" horiz-adv-x="713" unicode="X"/><glyph d="M84 694q-4 6 3 6h56q5 0 6 -3l237 -330l239 330q1 3 6 3h14q8 0 4 -6l-256 -350v-339q0 -5 -5 -5h-45q-5 0 -5 5v333z" glyph-name="Y" horiz-adv-x="733" unicode="Y"/><glyph d="M85 0q-8 0 -4 6l465 683h-435q-5 0 -5 5v1q0 5 5 5h501q8 0 4 -6l-470 -683h435q5 0 5 -5v-1q0 -5 -5 -5h-496z" glyph-name="Z" horiz-adv-x="697" unicode="Z"/><glyph d="M55 -50q-5 0 -5 5v790q0 5 5 5h190q5 0 5 -5v-1q0 -5 -5 -5h-145v-778h145q5 0 5 -5v-1q0 -5 -5 -5h-190z" glyph-name="bracketleft" horiz-adv-x="280" unicode="["/><glyph d="M428 -100l-378 900h13l376 -900h-11z" glyph-name="backslash" horiz-adv-x="488" unicode="\"/><glyph d="M35 -50q-5 0 -5 5v1q0 5 5 5h145v778h-145q-5 0 -5 5v1q0 5 5 5h190q5 0 5 -5v-790q0 -5 -5 -5h-190z" glyph-name="bracketright" horiz-adv-x="280" unicode="]"/><glyph d="M55 -10q-5 0 -5 5v16q0 5 5 5h441q5 0 5 -5v-16q0 -5 -5 -5h-441z" glyph-name="underscore" horiz-adv-x="551" unicode="_"/><glyph d="M208 567q-3 0 -7 2l-144 125q-6 6 2 6h29q4 0 6 -3l113 -124q5 -6 1 -6z" glyph-name="grave" horiz-adv-x="263" unicode="`"/><glyph d="M602 2q0 -5 -5 -5h-45q-5 0 -5 5v111q-25 -56 -81 -89.5t-129 -33.5q-111 0 -186.5 71.5t-80.5 178.5v6v6q4 116 79.5 185t187.5 69q76 0 130 -31.5t80 -73.5v81q1 6 4.5 9.5t11.5 5.5t13.5 2t20.5 1q5 0 5 -5v-493zM126 246q2 -106 63 -171t148 -65q89 0 149.5 55 t60.5 130v171q-31 47 -85 83.5t-125 36.5q-86 0 -147.5 -66.5t-63.5 -173.5z" glyph-name="a" horiz-adv-x="672" unicode="a"/><glyph d="M70 687q0 5 5 5h45q5 0 5 -5v-305q25 57 81 91t129 34q111 0 186.5 -71.5t80.5 -178.5v-6v-6q-4 -116 -79.5 -185.5t-187.5 -69.5q-70 0 -130.5 34.5t-79.5 69.5v-71v-1q-1 -13 -12 -17t-38 -5q-5 0 -5 5v682zM125 123q67 -104 210 -104q87 0 148.5 63.5t63.5 168.5 q-2 105 -63 166t-149 61q-90 0 -150 -50t-60 -124v-181z" glyph-name="b" horiz-adv-x="642" unicode="b"/><glyph d="M70 248q0 115 77.5 189t196.5 74q81 0 144.5 -37.5t95.5 -102.5q3 -6 -4 -6h-46q-3 0 -6 4q-25 59 -73 92.5t-111 34.5q-89 1 -152.5 -70.5t-63.5 -177.5t63.5 -177.5t152.5 -70.5q63 1 111 34.5t73 92.5q3 4 6 4h46q7 0 4 -6q-32 -65 -95.5 -102.5t-144.5 -37.5 q-118 0 -196 74.5t-78 188.5z" glyph-name="c" horiz-adv-x="655" unicode="c"/><glyph d="M602 5q0 -5 -5 -5q-18 1 -27 2t-16 6t-7 14v93q-25 -57 -81 -91t-129 -34q-111 0 -186.5 71.5t-80.5 178.5v6v6q4 116 79.5 185.5t187.5 69.5q70 0 130.5 -34.5t79.5 -69.5v284q0 5 5 5h45q5 0 5 -5v-682zM125 246q2 -105 63 -166t149 -61q90 0 150 50t60 124v181 q-67 104 -210 104q-87 0 -148.5 -63.5t-63.5 -168.5z" glyph-name="d" horiz-adv-x="662" unicode="d"/><glyph d="M610 263q0 -5 -5 -5h-477v-10q-2 -102 61.5 -173t160.5 -71q71 0 129 39t83 96q3 4 6 4h26q6 0 4 -6q-30 -66 -100.5 -109t-147.5 -43q-120 0 -200 74.5t-80 188.5q0 115 78 189t196 74q112 0 188 -70t78 -178zM130 276h420q-5 95 -63 157t-143 63q-82 1 -142.5 -61 t-71.5 -159z" glyph-name="e" horiz-adv-x="650" unicode="e"/><glyph d="M431 717q4 -1 4 -6q0 -3 -2 -4.5t-5 -0.5q-99 38 -154.5 -8t-55.5 -138v-60h157v-11h-157v-484q0 -5 -5 -5q-27 1 -38.5 5t-11.5 18v466h-93v11h93v46q0 114 80.5 164.5t187.5 6.5z" glyph-name="f" horiz-adv-x="490" unicode="f"/><glyph d="M354 -235q-112 0 -175 82q-6 6 0 6h1q3 0 7 -2q40 -35 78 -46t89 -11q87 0 139.5 59.5t52.5 168.5v91q-25 -56 -81 -89.5t-128 -33.5q-111 0 -186.5 71.5t-80.5 178.5v6v6q4 116 79.5 185.5t187.5 69.5q68 0 128 -33.5t81 -68.5v72q0 14 11.5 18t38.5 5q5 0 5 -5v-473 q0 -122 -66.5 -189.5t-180.5 -67.5zM125 246q2 -105 63 -166t149 -61q84 0 142.5 44t66.5 112v201q-67 102 -209 102q-87 0 -148.5 -64t-63.5 -168z" glyph-name="g" horiz-adv-x="671" unicode="g"/><glyph d="M70 725q0 5 5 5h45q5 0 5 -5v-365q24 67 81 104.5t129 37.5q114 0 180.5 -67.5t66.5 -189.5v-240q0 -5 -5 -5q-27 1 -38.5 5t-11.5 18v222q0 109 -52 168.5t-140 59.5q-90 0 -149.5 -60t-60.5 -145v-263q0 -5 -5 -5h-45q-5 0 -5 5v720z" glyph-name="h" horiz-adv-x="662" unicode="h"/><glyph d="M107 571q-17 0 -27 10.5t-10 26.5t10 26.5t27 10.5q16 0 26 -10.5t10 -26.5t-10 -26.5t-26 -10.5zM79 23v472q0 5 5 5h45q5 0 5 -5v-490q0 -5 -5 -5q-27 1 -38.5 5t-11.5 18z" glyph-name="i" horiz-adv-x="173" unicode="i"/><glyph d="M226 570q-17 0 -27 10.5t-10 26.5q0 17 10.5 27t26.5 10t26 -10.5t10 -26.5t-10 -26.5t-26 -10.5zM60 -254q0 5 5 5q132 11 132 158v568q0 14 11.5 18t38.5 5q5 0 5 -5v-550q0 -92 -49 -146t-138 -58q-5 0 -5 5zM247 500z" glyph-name="j" horiz-adv-x="331" unicode="j"/><glyph d="M445 0q-5 0 -7 2l-275 273l-38 -30v-240q0 -5 -5 -5h-45q-5 0 -5 5v720q0 5 5 5q27 -1 38.5 -5t11.5 -18v-440l303 231q4 2 6 2h13q8 0 2 -6l-249 -191l296 -297q6 -6 -3 -6h-48z" glyph-name="k" horiz-adv-x="567" unicode="k"/><glyph d="M70 725q0 5 5 5h45q5 0 5 -5v-720q0 -5 -5 -5q-27 1 -38.5 5t-11.5 18v702z" glyph-name="l" horiz-adv-x="225" unicode="l"/><glyph d="M70 495q0 5 5 5q27 -1 38.5 -5t11.5 -18v-92q22 53 70.5 85t109.5 32q74 0 130 -40.5t77 -107.5q15 66 67 107t123 41q93 0 155 -62t62 -155v-280q0 -5 -5 -5q-27 1 -38.5 5t-11.5 18v262q0 80 -46 134t-116 54q-77 0 -129 -53.5t-51 -127.5v-7v-280q0 -5 -5 -5h-45 q-5 0 -5 5v280q0 80 -46 134t-116 54q-77 0 -128 -47t-52 -118v-303q0 -5 -5 -5h-45q-5 0 -5 5v490z" glyph-name="m" horiz-adv-x="989" unicode="m"/><glyph d="M70 495q0 5 5 5q27 -1 38.5 -5t11.5 -18v-116q25 69 81.5 108.5t128.5 39.5q114 0 180.5 -70.5t66.5 -193.5v-240q0 -5 -5 -5q-27 1 -38.5 5t-11.5 18v222q0 110 -52.5 173.5t-139.5 63.5q-90 0 -149.5 -64t-60.5 -150v-263q0 -5 -5 -5h-45q-5 0 -5 5v490z" glyph-name="n" horiz-adv-x="642" unicode="n"/><glyph d="M356 -11q-124 0 -205 73.5t-81 185.5t81 185.5t205 73.5q123 0 203.5 -73.5t80.5 -185.5t-80.5 -185.5t-203.5 -73.5zM128 248q0 -103 64.5 -171.5t163.5 -69.5q102 -1 165.5 67t60.5 174q-3 104 -66.5 172.5t-159.5 69.5q-100 1 -164 -67.5t-64 -174.5z" glyph-name="o" horiz-adv-x="700" unicode="o"/><glyph d="M70 495q0 5 5 5q27 -1 38.5 -5t11.5 -18v-74q19 35 79.5 69.5t130.5 34.5q112 0 187.5 -69.5t79.5 -185.5v-6v-6q-5 -107 -80.5 -178.5t-186.5 -71.5q-73 0 -129 34t-81 91v-310q0 -5 -5 -5h-45q-5 0 -5 5v690zM125 193q0 -74 60 -124t150 -50q88 0 149 61t63 166 q-2 105 -63.5 168.5t-148.5 63.5q-143 0 -210 -104v-181z" glyph-name="p" horiz-adv-x="672" unicode="p"/><glyph d="M602 -195q0 -5 -5 -5h-45q-5 0 -5 5v310q-25 -57 -81 -91t-129 -34q-111 0 -186.5 71.5t-80.5 178.5v6v6q4 116 79.5 185.5t187.5 69.5q70 0 130.5 -34.5t79.5 -69.5v63q0 14 11.5 18t38.5 5q5 0 5 -5v-679zM125 246q2 -105 63 -166t149 -61q90 0 150 50t60 124v181 q-67 104 -210 104q-87 0 -148.5 -63.5t-63.5 -168.5z" glyph-name="q" horiz-adv-x="652" unicode="q"/><glyph d="M70 497q0 5 5 5q27 -1 38.5 -5t11.5 -18v-113q52 166 265 142q8 0 6 -7l-10 -28q-2 -3 -5 -3q-71 10 -122.5 -1.5t-79.5 -42t-41 -69t-13 -87.5v-265q0 -5 -5 -5h-45q-5 0 -5 5v492z" glyph-name="r" horiz-adv-x="446" unicode="r"/><glyph d="M304 -13q-76 0 -136 26.5t-93 68.5q-3 3 2 6l26 15q5 2 7 -1q65 -95 194 -95q75 0 125 27.5t54 71.5q4 50 -37 74.5t-157 46.5q-122 23 -168.5 60.5t-38.5 103.5q5 51 62 85t148 34q66 0 118.5 -26t82.5 -67q3 -5 -2 -7l-24 -10q-1 -1 -3.5 -0.5t-3.5 1.5q-59 91 -168 91 q-68 0 -113.5 -26.5t-51.5 -62.5q-8 -46 29.5 -72t138.5 -44q124 -21 182.5 -60.5t49.5 -107.5q-8 -61 -70.5 -96.5t-152.5 -35.5z" glyph-name="s" horiz-adv-x="574" unicode="s"/><glyph d="M70 493q0 5 5 5h188v182q0 5 5 5h45q5 0 5 -5v-182h132q5 0 5 -5v-1q0 -5 -5 -5h-132v-482q0 -5 -5 -5q-27 1 -38.5 5t-11.5 18v464h-188q-5 0 -5 5v1z" glyph-name="t" horiz-adv-x="475" unicode="t"/><glyph d="M582 5q0 -5 -5 -5q-27 1 -38.5 5t-11.5 18v117q-25 -71 -81.5 -112.5t-128.5 -41.5q-113 0 -180 74t-67 197v240q0 5 5 5q27 -1 38.5 -5t11.5 -18v-222q0 -112 53 -180.5t139 -68.5q89 0 149.5 71.5t60.5 158.5v259q0 5 5 5h45q5 0 5 -5v-492z" glyph-name="u" horiz-adv-x="632" unicode="u"/><glyph d="M71 494q-3 6 4 6h56q4 0 6 -4l207 -424l214 424q2 4 6 4h15q7 0 4 -6l-245 -490q-2 -4 -6 -4h-14q-4 0 -6 4l-1 2z" glyph-name="v" horiz-adv-x="614" unicode="v"/><glyph d="M666 0q-3 0 -5 4l-177 397l-173 -397q-2 -4 -5 -4h-35q-3 0 -5 4l-195 490q-3 6 4 6h48q3 0 5 -4l182 -445l162 375l-30 68q-3 6 4 6h47q3 0 5 -4l200 -443l177 443q2 4 5 4h14q7 0 4 -6l-198 -490q-2 -4 -5 -4h-29z" glyph-name="w" horiz-adv-x="969" unicode="w"/><glyph d="M482 0q-4 0 -6 3l-184 223l-185 -223q-1 -3 -6 -3h-10q-7 0 -3 6l193 234l-210 254q-4 6 3 6h55q5 0 6 -3l177 -218l180 218q2 3 6 3h13q7 0 3 -6l-190 -229l210 -259q4 -6 -3 -6h-49z" glyph-name="x" horiz-adv-x="605" unicode="x"/><glyph d="M319 -233q-95 0 -172 80q-3 3 0 6l12 10q3 3 6 -1q68 -71 154 -71q97 0 152 59t55 172v115q-25 -69 -81.5 -109.5t-127.5 -40.5q-113 0 -180 73.5t-67 196.5v240q0 5 6 5h-1q27 -1 38.5 -5t11.5 -18v-222q0 -111 53 -179.5t139 -68.5q91 0 150 73.5t59 157.5v255q0 5 5 5 h45q5 0 5 -5v-472q0 -122 -72.5 -189t-189.5 -67zM75 502z" glyph-name="y" horiz-adv-x="661" unicode="y"/><glyph d="M74 0q-7 0 -3 6l377 483h-344q-5 0 -5 5v1q0 5 5 5h411q7 0 3 -6l-383 -483h365q5 0 5 -5v-1q0 -5 -5 -5h-426z" glyph-name="z" horiz-adv-x="589" unicode="z"/><glyph d="M205 -40q-18 2 -27 10q-37 31 -44 97q-6 45 -0.5 85t8 74t-1.5 59t-30.5 39t-79.5 14v11q53 0 79.5 14t30.5 38.5t1.5 58.5t-8 74t0.5 85q7 64 44 97q15 10 37 10h3v-2q-33 -8 -35 -45q-2 -35 4.5 -85.5t10.5 -86t0 -72t-29 -59.5t-73 -32q48 -9 73 -32.5t29 -59.5t0 -72 t-10.5 -86.5t-4.5 -85.5q2 -29 21 -35z" glyph-name="braceleft" horiz-adv-x="257" unicode="{"/><glyph d="M50 -50v800h11v-800h-11z" glyph-name="bar" horiz-adv-x="111" unicode="|"/><glyph d="M49 -38q33 8 35 46q2 35 -4.5 85.5t-10.5 86.5t0 72t29 59.5t73 32.5q-48 9 -73 32t-29 59.5t0 72t10.5 86t4.5 85.5q-2 30 -21 37l-1 9q16 -2 27 -9q37 -33 44 -97q6 -45 0.5 -85t-8 -74t1.5 -58.5t30.5 -38.5t79.5 -14v-11q-53 0 -79.5 -14t-30.5 -39t-1.5 -59t8 -74 t-0.5 -85q-7 -66 -44 -97q-12 -10 -37 -10h-3v2z" glyph-name="braceright" horiz-adv-x="277" unicode="}"/><glyph d="M267 -50v202q-89 1 -148 60t-59 143q0 86 59.5 145.5t147.5 61.5v188h10v-188q62 -2 107.5 -28.5t65.5 -73.5q3 -4 -3 -4h-13q-2 0 -3 3q-44 79 -154 81v-369q101 3 153 68q2 3 4 3h11q6 0 4 -4q-55 -83 -172 -86v-202h-10zM105 355q0 -76 46.5 -129.5t115.5 -54.5v369 q-69 -2 -115.5 -55.5t-46.5 -129.5z" glyph-name="cent" horiz-adv-x="511" unicode="¢"/><glyph d="M72 0q-5 0 -5 5v8q0 5 3 6q75 72 99 103q93 119 23 239h-137q-5 0 -5 4t5 4h129q-33 59 -41 121t8.5 112t62 82t112.5 32q68 0 139 -63q3 -3 1 -7l-1 -2q-1 -2 -3.5 -3t-3.5 1q-65 47 -133 47q-76 0 -109.5 -47t-23.5 -120t56 -153h177q5 0 5 -4t-5 -4h-171 q12 -27 15.5 -54t1.5 -50t-11.5 -47t-19 -42t-27 -38.5t-30 -33t-32.5 -29.5t-29.5 -24t-27 -19.5t-19.5 -13.5h424q5 0 5 -5t-5 -5h-427z" glyph-name="sterling" horiz-adv-x="554" unicode="£"/><glyph d="M83 135q-3 -3 -7 0l-22 23q-4 4 0 7l94 78q3 3 1 7q-51 56 -51 127q0 74 52 131q2 4 -1 7l-95 80q-4 3 0 7l22 23q4 3 7 0l79 -97q3 -3 7 -1q62 49 130 49q71 0 129 -48q4 -2 7 1l79 96q4 3 7 0l22 -23q3 -4 0 -7l-94 -78q-3 -3 -1 -7q53 -58 53 -133q0 -72 -51 -128 q-2 -4 1 -7l92 -77q3 -3 0 -7l-22 -23q-3 -3 -7 0l-77 93q-3 3 -7 1q-58 -49 -131 -49q-72 0 -131 51q-4 2 -7 -1zM147 378q0 -83 40.5 -133.5t111.5 -50.5t113 50.5t42 133.5t-42 134.5t-113 51.5q-70 0 -111 -51t-41 -135z" glyph-name="currency" horiz-adv-x="597" unicode="¤"/><glyph d="M237 594q-15 0 -25.5 9.5t-10.5 22.5q0 14 10.5 23.5t25.5 9.5q16 0 26.5 -9.5t10.5 -23.5q0 -13 -10.5 -22.5t-26.5 -9.5zM50 626q0 14 10.5 23.5t25.5 9.5q16 0 26.5 -9.5t10.5 -23.5q0 -13 -10.5 -22.5t-26.5 -9.5q-15 0 -25.5 9.5t-10.5 22.5z" glyph-name="dieresis" horiz-adv-x="324" unicode="¨"/><glyph d="M448 -113q-147 0 -257.5 106.5t-110.5 255.5q0 98 51.5 182.5t136 132.5t180.5 48q147 0 257.5 -106.5t110.5 -256.5q0 -149 -110.5 -255.5t-257.5 -106.5zM96 250q0 -96 51.5 -178t132.5 -127.5t168 -45.5t168 45.5t133 127.5t52 178t-52 178t-133 127.5t-168 45.5 t-168 -45.5t-132.5 -127.5t-51.5 -178zM277 240q0 72 50 121.5t124 49.5q51 0 90 -22t56 -62q3 -4 -2 -4h-11l-2 3q-38 67 -131 67q-58 0 -97.5 -44.5t-39.5 -108.5q0 -63 39 -107t97 -44q85 0 131 56l3 2h9q4 0 4 -3q-48 -71 -147 -71q-74 0 -123.5 48.5t-49.5 118.5z" glyph-name="copyright" horiz-adv-x="896" unicode="©"/><glyph d="M138 583q-36 0 -62 25t-26 61q0 37 26 62t62 25t62 -25t26 -62q0 -36 -26 -61t-62 -25zM61 670q0 -36 22 -57t55 -21t55 21t22 57q0 35 -22 56t-55 21t-55 -21t-22 -56zM111 638v67q0 4 4 4h24q31 0 31 -24q0 -16 -17 -23q2 -3 4 -8.5t4 -8.5t6 -3t4 -4t-4 -4 q-9 0 -14 3.5t-11 11t-10 11.5h-6v-22q0 -4 -4 -4h-7q-4 0 -4 4zM126 675h13q13 0 13 10t-14 10h-12v-20z" glyph-name="registered" horiz-adv-x="276" unicode="®"/><glyph d="M55 615q-5 0 -5 5v10q0 5 5 5h150q5 0 5 -5v-10q0 -5 -5 -5h-150z" glyph-name="macron" horiz-adv-x="260" unicode="¯"/><glyph d="M55 567q-4 0 1 6l113 124q1 3 6 3h29q8 0 2 -6l-144 -125q-4 -2 -7 -2z" glyph-name="acute" horiz-adv-x="263" unicode="´"/><glyph d="M239 455q-90 0 -139.5 32t-49.5 88t53.5 90.5t135.5 34.5h50v-700h-50v455zM321 0v700h20v-700h-20z" glyph-name="paragraph" horiz-adv-x="391" unicode="¶"/><glyph d="M96 227q-20 0 -33 13.5t-13 34.5q0 20 12.5 33.5t33.5 13.5q20 0 33.5 -13.5t13.5 -33.5q0 -21 -13.5 -34.5t-33.5 -13.5z" glyph-name="periodcentered" horiz-adv-x="193" unicode="·"/><glyph d="M55 -199q-5 0 -5 2t5 2q37 1 57.5 20t20.5 51q0 31 -23.5 51t-54.5 22q-4 0 -4 5l6 41q0 5 6 5h12q5 0 4 -6l-13 -33q41 -2 71.5 -26t30.5 -60q0 -33 -30 -53t-83 -21z" glyph-name="cedilla" horiz-adv-x="218" unicode="¸"/><glyph d="M651 0q-4 0 -6 4l-279 632l-162 -383h298l5 -11h-307l-101 -238q-2 -4 -6 -4h-7q-5 0 -3 6l296 690q1 4 5 4h13q4 0 6 -4l301 -690q2 -6 -3 -6h-50z" glyph-name="Agrave" horiz-adv-x="787" unicode="À"/><glyph d="M651 0q-4 0 -6 4l-279 632l-162 -383h298l5 -11h-307l-101 -238q-2 -4 -6 -4h-7q-5 0 -3 6l296 690q1 4 5 4h13q4 0 6 -4l301 -690q2 -6 -3 -6h-50zM304 740q-4 0 1 6l113 124q2 3 6 3h29q8 0 2 -6l-144 -125q-4 -2 -7 -2z" glyph-name="Aacute" horiz-adv-x="787" unicode="Á"/><glyph d="M651 0q-4 0 -6 4l-279 632l-162 -383h298l5 -11h-307l-101 -238q-2 -4 -6 -4h-7q-5 0 -3 6l296 690q1 4 5 4h13q4 0 6 -4l301 -690q2 -6 -3 -6h-50zM263 758q0 4 3 6l119 98q4 4 8 0l117 -98q3 -2 3 -6q0 -5 -6 -1l-114 65q-5 2 -10 0l-114 -65q-6 -4 -6 1z" glyph-name="Acircumflex" horiz-adv-x="787" unicode="Â"/><glyph d="M651 0q-4 0 -6 4l-279 632l-162 -383h298l5 -11h-307l-101 -238q-2 -4 -6 -4h-7q-5 0 -3 6l296 690q1 4 5 4h13q4 0 6 -4l301 -690q2 -6 -3 -6h-50zM259 789q-4 4 0 8q30 26 56 33.5t43 0t35 -19t33.5 -22.5t38 -9.5t48.5 19.5q5 3 7 -1t-2 -9q-27 -27 -52 -35.5 t-43.5 -1.5t-38 17.5t-36.5 22t-38.5 11.5t-43.5 -14q-4 -3 -7 0z" glyph-name="Atilde" horiz-adv-x="787" unicode="Ã"/><glyph d="M651 0q-4 0 -6 4l-279 632l-162 -383h298l5 -11h-307l-101 -238q-2 -4 -6 -4h-7q-5 0 -3 6l296 690q1 4 5 4h13q4 0 6 -4l301 -690q2 -6 -3 -6h-50zM278 792q0 14 10.5 23.5t25.5 9.5q16 0 26.5 -9.5t10.5 -23.5q0 -13 -10.5 -22.5t-26.5 -9.5q-15 0 -25.5 9.5 t-10.5 22.5zM429 792q0 14 10.5 23.5t25.5 9.5q16 0 26.5 -9.5t10.5 -23.5q0 -13 -10.5 -22.5t-26.5 -9.5q-15 0 -25.5 9.5t-10.5 22.5z" glyph-name="Adieresis" horiz-adv-x="787" unicode="Ä"/><glyph d="M651 0q-4 0 -6 4l-279 632l-162 -383h298l5 -11h-307l-101 -238q-2 -4 -6 -4h-7q-5 0 -3 6l296 690q1 4 5 4h13q4 0 6 -4l301 -690q2 -6 -3 -6h-50z" glyph-name="Aring" horiz-adv-x="787" unicode="Å"/><glyph d="M83 0q-5 0 -3 6l296 690v-1q0 5 5 5h436q5 0 5 -5v-1q0 -5 -5 -5h-386v-279h306q5 0 5 -5v-1q0 -5 -5 -5h-306v-388h406q5 0 5 -5v-1q0 -5 -5 -5h-456q-5 0 -5 5v237h-178v4l-102 -242q-2 -4 -6 -4h-7zM201 253h175v414z" glyph-name="AE" horiz-adv-x="922" unicode="Æ"/><glyph d="M431 -12h-15l-11 -27q41 -2 71.5 -26t30.5 -60q0 -33 -30 -53t-83 -21q-5 0 -5 2t5 2q37 1 57.5 20t20.5 51q0 31 -23.5 51t-54.5 22q-4 0 -4 5l5 36q-137 13 -226 117t-89 252q0 152 100.5 252t252.5 100q97 0 167 -48t113 -126q3 -6 -4 -6h-34q-5 0 -6 3 q-91 162 -236 162q-129 0 -213 -97.5t-84 -239.5q0 -150 83.5 -252.5t211.5 -102.5q62 0 126 38t105 100q2 3 6 3h38q7 0 3 -6q-50 -72 -125.5 -111.5t-152.5 -39.5z" glyph-name="Ccedilla" horiz-adv-x="788" unicode="Ç"/><glyph d="M80 695q0 5 5 5h436q5 0 5 -5v-1q0 -5 -5 -5h-386v-279h306q5 0 5 -5v-1q0 -5 -5 -5h-306v-388h406q5 0 5 -5v-1q0 -5 -5 -5h-456q-5 0 -5 5v690zM226 867q-6 6 2 6h29q5 0 6 -3l113 -124q4 -6 1 -6t-7 2z" glyph-name="Egrave" horiz-adv-x="626" unicode="È"/><glyph d="M80 695q0 5 5 5h436q5 0 5 -5v-1q0 -5 -5 -5h-386v-279h306q5 0 5 -5v-1q0 -5 -5 -5h-306v-388h406q5 0 5 -5v-1q0 -5 -5 -5h-456q-5 0 -5 5v690zM247 755q-4 0 1 6l113 124q1 3 6 3h29q8 0 2 -6l-144 -125q-4 -2 -7 -2z" glyph-name="Eacute" horiz-adv-x="626" unicode="É"/><glyph d="M80 695q0 5 5 5h436q5 0 5 -5v-1q0 -5 -5 -5h-386v-279h306q5 0 5 -5v-1q0 -5 -5 -5h-306v-388h406q5 0 5 -5v-1q0 -5 -5 -5h-456q-5 0 -5 5v690zM196 759q0 5 3 6l119 98q4 4 8 0l117 -98q3 -1 3 -6t-6 -1l-114 65q-5 2 -10 0l-114 -65q-6 -4 -6 1z" glyph-name="Ecircumflex" horiz-adv-x="626" unicode="Ê"/><glyph d="M80 695q0 5 5 5h436q5 0 5 -5v-1q0 -5 -5 -5h-386v-279h306q5 0 5 -5v-1q0 -5 -5 -5h-306v-388h406q5 0 5 -5v-1q0 -5 -5 -5h-456q-5 0 -5 5v690zM215 814q0 14 10.5 23.5t25.5 9.5q16 0 26.5 -9.5t10.5 -23.5q0 -13 -10.5 -22.5t-26.5 -9.5q-15 0 -25.5 9.5t-10.5 22.5z M366 814q0 14 10.5 23.5t25.5 9.5q16 0 26.5 -9.5t10.5 -23.5q0 -13 -10.5 -22.5t-26.5 -9.5q-15 0 -25.5 9.5t-10.5 22.5z" glyph-name="Edieresis" horiz-adv-x="626" unicode="Ë"/><glyph d="M85 0q-5 0 -5 5v690q0 5 5 5h45q5 0 5 -5v-690q0 -5 -5 -5h-45zM17 864q-6 6 2 6h29q4 0 6 -3l113 -124q4 -6 1 -6t-7 2z" glyph-name="Igrave" horiz-adv-x="215" unicode="Ì"/><glyph d="M85 0q-5 0 -5 5v690q0 5 5 5h45q5 0 5 -5v-690q0 -5 -5 -5h-45zM55 743q-4 0 1 6l113 124q1 3 6 3h29q8 0 2 -6l-144 -125q-4 -2 -7 -2z" glyph-name="Iacute" horiz-adv-x="215" unicode="Í"/><glyph d="M85 0q-5 0 -5 5v690q0 5 5 5h45q5 0 5 -5v-690q0 -5 -5 -5h-45zM-15 728q0 4 3 6l119 98q4 4 8 0l117 -98q3 -2 3 -6q0 -5 -6 -1l-111 63l-6 3q-5 0 -7 -1l-114 -65q-6 -4 -6 1z" glyph-name="Icircumflex" horiz-adv-x="215" unicode="Î"/><glyph d="M85 0q-5 0 -5 5v690q0 5 5 5h45q5 0 5 -5v-690q0 -5 -5 -5h-45zM-2 769q0 14 10.5 23.5t25.5 9.5q16 0 26.5 -9.5t10.5 -23.5q0 -13 -10.5 -22.5t-26.5 -9.5q-15 0 -25.5 9.5t-10.5 22.5zM149 769q0 14 10.5 23.5t25.5 9.5q16 0 26.5 -9.5t10.5 -23.5q0 -13 -10.5 -22.5 t-26.5 -9.5q-15 0 -25.5 9.5t-10.5 22.5z" glyph-name="Idieresis" horiz-adv-x="215" unicode="Ï"/><glyph d="M85 0q-5 0 -5 5v327h-62q-5 0 -5 5v6q0 5 5 5h62v347q0 5 5 5h194q193 0 302 -90t109 -251q0 -169 -108.5 -264t-302.5 -95h-194zM135 17h145q164 0 258 88t98 246q1 157 -94.5 245.5t-266.5 89.5l-140 1v-339h195q5 0 5 -5v-6q0 -5 -5 -5h-195v-315z" glyph-name="Eth" horiz-adv-x="600" unicode="Ð"/><glyph d="M80 695q0 5 5 5h61q4 0 6 -3l469 -614v612q0 5 5 5h4q5 0 5 -5v-690q0 -5 -5 -5h-19l-517 682v-677q0 -5 -5 -5h-4q-5 0 -5 5v690zM231 788q-4 4 0 8q30 26 56 33.5t43 0t35 -19t33.5 -22.5t38 -9.5t48.5 19.5q5 3 7 -1t-2 -9q-27 -27 -52 -35.5t-43.5 -1.5t-38 17.5 t-36.5 22t-38.5 11.5t-43.5 -14q-4 -3 -7 0z" glyph-name="Ntilde" horiz-adv-x="715" unicode="Ñ"/><glyph d="M444 -19q-156 0 -260 105t-104 262q0 158 104 263t260 105q155 0 258.5 -105t103.5 -263q0 -157 -103.5 -262t-258.5 -105zM139 348q0 -148 87 -249t218 -103q134 -2 220.5 99t82.5 253q-4 151 -91 251.5t-212 101.5q-131 2 -218 -99t-87 -254zM370 865q-6 6 2 6h29 q5 0 6 -3l113 -124q4 -6 1 -6t-7 2z" glyph-name="Ograve" horiz-adv-x="886" unicode="Ò"/><glyph d="M444 -19q-156 0 -260 105t-104 262q0 158 104 263t260 105q155 0 258.5 -105t103.5 -263q0 -157 -103.5 -262t-258.5 -105zM139 348q0 -148 87 -249t218 -103q134 -2 220.5 99t82.5 253q-4 151 -91 251.5t-212 101.5q-131 2 -218 -99t-87 -254zM356 749q-4 0 1 6l113 124 q2 3 6 3h29q8 0 2 -6l-144 -125q-4 -2 -7 -2z" glyph-name="Oacute" horiz-adv-x="886" unicode="Ó"/><glyph d="M444 -19q-156 0 -260 105t-104 262q0 158 104 263t260 105q155 0 258.5 -105t103.5 -263q0 -157 -103.5 -262t-258.5 -105zM139 348q0 -148 87 -249t218 -103q134 -2 220.5 99t82.5 253q-4 151 -91 251.5t-212 101.5q-131 2 -218 -99t-87 -254zM318 746q0 4 3 6l119 98 q4 4 8 0l117 -98q3 -2 3 -6q0 -5 -6 -1l-114 65q-5 2 -10 0l-114 -65q-6 -4 -6 1z" glyph-name="Ocircumflex" horiz-adv-x="886" unicode="Ô"/><glyph d="M444 -19q-156 0 -260 105t-104 262q0 158 104 263t260 105q155 0 258.5 -105t103.5 -263q0 -157 -103.5 -262t-258.5 -105zM139 348q0 -148 87 -249t218 -103q134 -2 220.5 99t82.5 253q-4 151 -91 251.5t-212 101.5q-131 2 -218 -99t-87 -254zM324 773q-4 4 0 8 q28 29 53 38t42.5 2.5t36.5 -17t35.5 -20t39 -6.5t46.5 23q5 3 7 -1t-2 -9q-29 -34 -58 -42t-50.5 3t-46 22.5t-46 16t-50.5 -16.5q-4 -4 -7 -1z" glyph-name="Otilde" horiz-adv-x="886" unicode="Õ"/><glyph d="M444 -19q-156 0 -260 105t-104 262q0 158 104 263t260 105q155 0 258.5 -105t103.5 -263q0 -157 -103.5 -262t-258.5 -105zM139 348q0 -148 87 -249t218 -103q134 -2 220.5 99t82.5 253q-4 151 -91 251.5t-212 101.5q-131 2 -218 -99t-87 -254zM332 798q0 14 10.5 23.5 t25.5 9.5q16 0 26.5 -9.5t10.5 -23.5q0 -13 -10.5 -22.5t-26.5 -9.5q-15 0 -25.5 9.5t-10.5 22.5zM483 798q0 14 10.5 23.5t25.5 9.5q16 0 26.5 -9.5t10.5 -23.5q0 -13 -10.5 -22.5t-26.5 -9.5q-15 0 -25.5 9.5t-10.5 22.5z" glyph-name="Odieresis" horiz-adv-x="886" unicode="Ö"/><glyph d="M74 212l-10 11l158 158l-159 157l12 10l157 -157l157 157l11 -10l-157 -157l157 -158l-10 -11l-158 158z" glyph-name="multiply" horiz-adv-x="464" unicode="×"/><glyph d="M444 -19q-132 0 -229 77l-46 -58h-13l51 64q-60 50 -93.5 123.5t-33.5 160.5q0 158 104 263t260 105q128 0 224 -74l46 58h14l-52 -65q62 -50 96 -124.5t34 -162.5q0 -157 -103.5 -262t-258.5 -105zM139 348q0 -152 92 -254l413 518q-84 89 -200 89q-131 2 -218 -99 t-87 -254zM238 86q85 -89 206 -90q134 -2 220.5 99t82.5 253q-4 154 -95 256z" glyph-name="Oslash" horiz-adv-x="886" unicode="Ø"/><glyph d="M367 -6q-126 0 -206.5 71t-80.5 179v451q0 5 5 5h46q5 0 5 -5v-439q0 -105 64.5 -174.5t166.5 -69.5q111 0 181 73.5t70 184.5v425q0 5 5 5h4q5 0 5 -5v-425v-2q-1 -119 -75 -196.5t-190 -77.5zM261 857q-6 6 2 6h29q4 0 6 -3l113 -124q5 -6 1 -6q-3 0 -7 2z" glyph-name="Ugrave" horiz-adv-x="712" unicode="Ù"/><glyph d="M367 -6q-126 0 -206.5 71t-80.5 179v451q0 5 5 5h46q5 0 5 -5v-439q0 -105 64.5 -174.5t166.5 -69.5q111 0 181 73.5t70 184.5v425q0 5 5 5h4q5 0 5 -5v-425v-2q-1 -119 -75 -196.5t-190 -77.5zM297 734q-3 0 1 6l113 124q1 3 6 3h29q8 0 2 -6l-144 -125q-4 -2 -7 -2z " glyph-name="Uacute" horiz-adv-x="712" unicode="Ú"/><glyph d="M367 -6q-126 0 -206.5 71t-80.5 179v451q0 5 5 5h46q5 0 5 -5v-439q0 -105 64.5 -174.5t166.5 -69.5q111 0 181 73.5t70 184.5v425q0 5 5 5h4q5 0 5 -5v-425v-2q-1 -119 -75 -196.5t-190 -77.5zM252 749q0 5 3 6l119 98q4 4 8 0l117 -98q3 -1 3 -6t-6 -1l-111 63l-6 3 q-5 0 -7 -1l-114 -65q-6 -4 -6 1z" glyph-name="Ucircumflex" horiz-adv-x="712" unicode="Û"/><glyph d="M367 -6q-126 0 -206.5 71t-80.5 179v451q0 5 5 5h46q5 0 5 -5v-439q0 -105 64.5 -174.5t166.5 -69.5q111 0 181 73.5t70 184.5v425q0 5 5 5h4q5 0 5 -5v-425v-2q-1 -119 -75 -196.5t-190 -77.5zM256 780q0 14 10.5 23.5t25.5 9.5q16 0 26.5 -9.5t10.5 -23.5 q0 -13 -10.5 -22.5t-26.5 -9.5q-15 0 -25.5 9.5t-10.5 22.5zM407 780q0 14 10.5 23.5t25.5 9.5q16 0 26.5 -9.5t10.5 -23.5q0 -13 -10.5 -22.5t-26.5 -9.5q-15 0 -25.5 9.5t-10.5 22.5z" glyph-name="Udieresis" horiz-adv-x="712" unicode="Ü"/><glyph d="M84 694q-4 6 3 6h56q5 0 6 -3l237 -330l239 330q1 3 6 3h14q8 0 4 -6l-256 -350v-339q0 -5 -5 -5h-45q-5 0 -5 5v333zM309 735q-3 0 1 6l113 124q1 3 6 3h29q8 0 2 -6l-144 -125q-4 -2 -7 -2z" glyph-name="Yacute" horiz-adv-x="733" unicode="Ý"/><glyph d="M85 0q-5 0 -5 5v690q0 5 5 5h45q5 0 5 -5v-115h144q160 0 250.5 -59.5t90.5 -165.5q0 -111 -90.5 -173.5t-250.5 -62.5h-144v-114q0 -5 -5 -5h-45zM135 130h145q131 0 206.5 58t79.5 162q1 103 -76 161t-215 59l-140 1v-441z" glyph-name="Thorn" horiz-adv-x="600" unicode="Þ"/><glyph d="M80 23v490q0 94 54.5 147t151.5 53q81 0 135 -42t54 -106t-46 -107t-115 -43q105 0 172.5 -58t67.5 -156q0 -71 -32 -120.5t-79.5 -69t-99.5 -22.5t-96 12t-64 41q-3 3 -1 7l2 3q4 4 7 1q17 -20 53 -32.5t78.5 -10.5t82 18t65.5 60t26 109q0 114 -71 164.5t-191 43.5 q-4 -1 -13 -1q-5 -2 -5 4v7q0 5 5 5q86 1 144 42.5t60 102.5q1 55 -39 91t-102 36q-71 0 -110 -47t-39 -132v-508q0 -5 -5 -5q-27 1 -38.5 5t-11.5 18z" glyph-name="germandbls" horiz-adv-x="634" unicode="ß"/><glyph d="M602 2q0 -5 -5 -5h-45q-5 0 -5 5v111q-25 -56 -81 -89.5t-129 -33.5q-111 0 -186.5 71.5t-80.5 178.5v6v6q4 116 79.5 185t187.5 69q76 0 130 -31.5t80 -73.5v81q1 6 4.5 9.5t11.5 5.5t13.5 2t20.5 1q5 0 5 -5v-493zM126 246q2 -106 63 -171t148 -65q89 0 149.5 55 t60.5 130v171q-31 47 -85 83.5t-125 36.5q-86 0 -147.5 -66.5t-63.5 -173.5zM244 675q-6 6 2 6h29q5 0 6 -3l113 -124q4 -6 1 -6t-7 2z" glyph-name="agrave" horiz-adv-x="672" unicode="à"/><glyph d="M602 2q0 -5 -5 -5h-45q-5 0 -5 5v111q-25 -56 -81 -89.5t-129 -33.5q-111 0 -186.5 71.5t-80.5 178.5v6v6q4 116 79.5 185t187.5 69q76 0 130 -31.5t80 -73.5v81q1 6 4.5 9.5t11.5 5.5t13.5 2t20.5 1q5 0 5 -5v-493zM126 246q2 -106 63 -171t148 -65q89 0 149.5 55 t60.5 130v171q-31 47 -85 83.5t-125 36.5q-86 0 -147.5 -66.5t-63.5 -173.5zM289 567q-3 0 1 6l113 124q1 3 6 3h29q8 0 2 -6l-144 -125q-4 -2 -7 -2z" glyph-name="aacute" horiz-adv-x="672" unicode="á"/><glyph d="M602 2q0 -5 -5 -5h-45q-5 0 -5 5v111q-25 -56 -81 -89.5t-129 -33.5q-111 0 -186.5 71.5t-80.5 178.5v6v6q4 116 79.5 185t187.5 69q76 0 130 -31.5t80 -73.5v81q1 6 4.5 9.5t11.5 5.5t13.5 2t20.5 1q5 0 5 -5v-493zM126 246q2 -106 63 -171t148 -65q89 0 149.5 55 t60.5 130v171q-31 47 -85 83.5t-125 36.5q-86 0 -147.5 -66.5t-63.5 -173.5zM225 560q0 4 3 6l119 98q4 4 8 0l117 -98q3 -2 3 -6q0 -5 -6 -1l-114 65q-5 2 -10 0l-114 -65q-6 -4 -6 1z" glyph-name="acircumflex" horiz-adv-x="672" unicode="â"/><glyph d="M602 2q0 -5 -5 -5h-45q-5 0 -5 5v111q-25 -56 -81 -89.5t-129 -33.5q-111 0 -186.5 71.5t-80.5 178.5v6v6q4 116 79.5 185t187.5 69q76 0 130 -31.5t80 -73.5v81q1 6 4.5 9.5t11.5 5.5t13.5 2t20.5 1q5 0 5 -5v-493zM126 246q2 -106 63 -171t148 -65q89 0 149.5 55 t60.5 130v171q-31 47 -85 83.5t-125 36.5q-86 0 -147.5 -66.5t-63.5 -173.5zM220 608q29 28 54.5 36.5t43 1t36 -18t34.5 -21t38.5 -8.5t47.5 21q5 3 7 0q2 -4 -2 -9q-26 -28 -50.5 -37.5t-43 -3t-39 16.5t-37.5 20t-38.5 10t-42.5 -15q-4 -3 -7 -1q-5 4 -1 8z" glyph-name="atilde" horiz-adv-x="672" unicode="ã"/><glyph d="M602 2q0 -5 -5 -5h-45q-5 0 -5 5v111q-25 -56 -81 -89.5t-129 -33.5q-111 0 -186.5 71.5t-80.5 178.5v6v6q4 116 79.5 185t187.5 69q76 0 130 -31.5t80 -73.5v81q1 6 4.5 9.5t11.5 5.5t13.5 2t20.5 1q5 0 5 -5v-493zM126 246q2 -106 63 -171t148 -65q89 0 149.5 55 t60.5 130v171q-31 47 -85 83.5t-125 36.5q-86 0 -147.5 -66.5t-63.5 -173.5zM248 608q0 14 10.5 23.5t25.5 9.5q16 0 26.5 -9.5t10.5 -23.5q0 -13 -10.5 -22.5t-26.5 -9.5q-15 0 -25.5 9.5t-10.5 22.5zM399 608q0 14 10.5 23.5t25.5 9.5q16 0 26.5 -9.5t10.5 -23.5 q0 -13 -10.5 -22.5t-26.5 -9.5q-15 0 -25.5 9.5t-10.5 22.5z" glyph-name="adieresis" horiz-adv-x="672" unicode="ä"/><glyph d="M602 2q0 -5 -5 -5h-45q-5 0 -5 5v111q-25 -56 -81 -89.5t-129 -33.5q-111 0 -186.5 71.5t-80.5 178.5v6v6q4 116 79.5 185t187.5 69q76 0 130 -31.5t80 -73.5v81q1 6 4.5 9.5t11.5 5.5t13.5 2t20.5 1q5 0 5 -5v-493zM126 246q2 -106 63 -171t148 -65q89 0 149.5 55 t60.5 130v171q-31 47 -85 83.5t-125 36.5q-86 0 -147.5 -66.5t-63.5 -173.5zM282 629q0 31 22.5 51.5t56.5 20.5t56.5 -20.5t22.5 -51.5t-22.5 -51.5t-56.5 -20.5t-56.5 20.5t-22.5 51.5zM320 631q-3 -61 41 -61q38 0 41 58q2 62 -41 62q-39 0 -41 -59z" glyph-name="aring" horiz-adv-x="672" unicode="å"/><glyph d="M612 2q0 -5 -5 -5h-45q-5 0 -5 5v111q-25 -56 -81 -89.5t-129 -33.5q-111 0 -186.5 71.5t-80.5 178.5v6v6q4 116 79.5 185t187.5 69q76 0 130 -31.5t80 -73.5v81q1 6 4.5 9.5t11.5 5.5t13.5 2t20.5 1q5 0 5 -5v-86q78 102 221 102q112 0 188 -70t78 -178q0 -5 -5 -5h-477 v-10q-2 -102 61.5 -173t160.5 -71q71 0 129 39t83 96q3 4 6 4h26q5 0 4 -6q-30 -66 -100.5 -109t-147.5 -43q-71 0 -130 27.5t-97 76.5v-87zM136 246q2 -106 63 -171t148 -65q89 0 149.5 55t60.5 130v171q-31 47 -85 83.5t-125 36.5q-86 0 -147.5 -66.5t-63.5 -173.5z M619 276h420q-5 95 -63 157t-143 63q-82 1 -142.5 -61t-71.5 -159z" glyph-name="ae" horiz-adv-x="1179" unicode="æ"/><glyph d="M70 248q0 115 77.5 189t196.5 74q81 0 144.5 -37.5t95.5 -102.5q3 -6 -4 -6h-46q-3 0 -6 4q-25 59 -73 92.5t-111 34.5q-89 1 -152.5 -70.5t-63.5 -177.5t63.5 -177.5t152.5 -70.5q63 1 111 34.5t73 92.5q3 4 6 4h46q7 0 4 -6q-32 -65 -95.5 -102.5t-144.5 -37.5l-18 1 l-10 -25q41 -2 71.5 -26t30.5 -60q0 -33 -30 -53t-83 -21q-5 0 -5 2t5 2q37 1 57.5 20t20.5 51q0 31 -23.5 51t-54.5 22q-4 0 -4 5l5 33q-104 13 -170 85t-66 176z" glyph-name="ccedilla" horiz-adv-x="655" unicode="ç"/><glyph d="M610 263q0 -5 -5 -5h-477v-10q-2 -102 61.5 -173t160.5 -71q71 0 129 39t83 96q3 4 6 4h26q6 0 4 -6q-30 -66 -100.5 -109t-147.5 -43q-120 0 -200 74.5t-80 188.5q0 115 78 189t196 74q112 0 188 -70t78 -178zM130 276h420q-5 95 -63 157t-143 63q-82 1 -142.5 -61 t-71.5 -159zM277 676q-6 6 2 6h29q4 0 6 -3l113 -124q4 -6 1 -6t-7 2z" glyph-name="egrave" horiz-adv-x="650" unicode="è"/><glyph d="M610 263q0 -5 -5 -5h-477v-10q-2 -102 61.5 -173t160.5 -71q71 0 129 39t83 96q3 4 6 4h26q6 0 4 -6q-30 -66 -100.5 -109t-147.5 -43q-120 0 -200 74.5t-80 188.5q0 115 78 189t196 74q112 0 188 -70t78 -178zM130 276h420q-5 95 -63 157t-143 63q-82 1 -142.5 -61 t-71.5 -159zM263 567q-3 0 1 6l113 124q1 3 6 3h29q8 0 2 -6l-144 -125q-4 -2 -7 -2z" glyph-name="eacute" horiz-adv-x="650" unicode="é"/><glyph d="M610 263q0 -5 -5 -5h-477v-10q-2 -102 61.5 -173t160.5 -71q71 0 129 39t83 96q3 4 6 4h26q6 0 4 -6q-30 -66 -100.5 -109t-147.5 -43q-120 0 -200 74.5t-80 188.5q0 115 78 189t196 74q112 0 188 -70t78 -178zM130 276h420q-5 95 -63 157t-143 63q-82 1 -142.5 -61 t-71.5 -159zM221 550q0 4 3 6l119 98q4 4 8 0l117 -98q3 -2 3 -6q0 -5 -6 -1l-114 65q-5 2 -10 0l-114 -65q-6 -4 -6 1z" glyph-name="ecircumflex" horiz-adv-x="650" unicode="ê"/><glyph d="M610 263q0 -5 -5 -5h-477v-10q-2 -102 61.5 -173t160.5 -71q71 0 129 39t83 96q3 4 6 4h26q6 0 4 -6q-30 -66 -100.5 -109t-147.5 -43q-120 0 -200 74.5t-80 188.5q0 115 78 189t196 74q112 0 188 -70t78 -178zM130 276h420q-5 95 -63 157t-143 63q-82 1 -142.5 -61 t-71.5 -159zM237 601q0 14 10.5 23.5t25.5 9.5q16 0 26.5 -9.5t10.5 -23.5q0 -13 -10.5 -22.5t-26.5 -9.5q-15 0 -25.5 9.5t-10.5 22.5zM388 601q0 14 10.5 23.5t25.5 9.5q16 0 26.5 -9.5t10.5 -23.5q0 -13 -10.5 -22.5t-26.5 -9.5q-15 0 -25.5 9.5t-10.5 22.5z" glyph-name="edieresis" horiz-adv-x="650" unicode="ë"/><glyph d="M135 5q0 -5 -5 -5q-27 1 -38.5 5t-11.5 18v472q0 5 5 5h45q5 0 5 -5v-490zM29 694q-6 6 2 6h29q4 0 6 -3l113 -124q4 -6 1 -6t-7 2z" glyph-name="igrave" horiz-adv-x="225" unicode="ì"/><glyph d="M135 5q0 -5 -5 -5q-27 1 -38.5 5t-11.5 18v472q0 5 5 5h45q5 0 5 -5v-490zM55 567q-4 0 1 6l113 124q1 3 6 3h29q8 0 2 -6l-144 -125q-4 -2 -7 -2z" glyph-name="iacute" horiz-adv-x="225" unicode="í"/><glyph d="M135 5q0 -5 -5 -5q-27 1 -38.5 5t-11.5 18v472q0 5 5 5h45q5 0 5 -5v-490zM-13 592q0 4 3 6l119 98q4 4 8 0l117 -98q3 -2 3 -6q0 -5 -6 -1l-111 63l-6 3q-5 0 -7 -1l-114 -65q-6 -4 -6 1z" glyph-name="icircumflex" horiz-adv-x="225" unicode="î"/><glyph d="M135 5q0 -5 -5 -5q-27 1 -38.5 5t-11.5 18v472q0 5 5 5h45q5 0 5 -5v-490zM-3 626q0 14 10.5 23.5t25.5 9.5q16 0 26.5 -9.5t10.5 -23.5q0 -13 -10.5 -22.5t-26.5 -9.5q-15 0 -25.5 9.5t-10.5 22.5zM148 626q0 14 10.5 23.5t25.5 9.5q16 0 26.5 -9.5t10.5 -23.5 q0 -13 -10.5 -22.5t-26.5 -9.5q-15 0 -25.5 9.5t-10.5 22.5z" glyph-name="idieresis" horiz-adv-x="225" unicode="ï"/><glyph d="M323 560l-4 6l116 70q-89 89 -203 40l-3 8q137 67 243 -26l72 43l4 -6l-70 -42q58 -55 93 -150t38 -214q1 -44 -4.5 -83t-23 -79.5t-46.5 -69.5t-77.5 -47.5t-112.5 -18.5q-124 0 -194.5 75.5t-70.5 189.5q0 61 25 111.5t65 82t91 47t102 11t99 -32t81 -75.5 q-29 154 -103 230zM137 252q0 -97 60.5 -169.5t147.5 -72.5q94 0 151.5 65.5t60.5 158.5q0 78 -10 139q-57 66 -130.5 88.5t-134.5 3.5t-103 -76t-42 -137z" glyph-name="eth" horiz-adv-x="689" unicode="ð"/><glyph d="M70 495q0 5 5 5q27 -1 38.5 -5t11.5 -18v-116q25 69 81.5 108.5t128.5 39.5q114 0 180.5 -70.5t66.5 -193.5v-240q0 -5 -5 -5q-27 1 -38.5 5t-11.5 18v222q0 110 -52.5 173.5t-139.5 63.5q-90 0 -149.5 -64t-60.5 -150v-263q0 -5 -5 -5h-45q-5 0 -5 5v490zM204 601 q29 28 54.5 36.5t43 1t36 -18t34.5 -21t38.5 -8.5t47.5 21q5 4 7 0t-2 -9q-26 -28 -50.5 -37.5t-43 -3t-39 16.5t-37.5 20t-38.5 10t-42.5 -15q-4 -3 -7 -1q-5 4 -1 8z" glyph-name="ntilde" horiz-adv-x="642" unicode="ñ"/><glyph d="M356 -11q-124 0 -205 73.5t-81 185.5t81 185.5t205 73.5q123 0 203.5 -73.5t80.5 -185.5t-80.5 -185.5t-203.5 -73.5zM128 248q0 -103 64.5 -171.5t163.5 -69.5q102 -1 165.5 67t60.5 174q-3 104 -66.5 172.5t-159.5 69.5q-100 1 -164 -67.5t-64 -174.5zM275 654 q-6 6 2 6h29q4 0 6 -3l113 -124q4 -6 1 -6t-7 2z" glyph-name="ograve" horiz-adv-x="700" unicode="ò"/><glyph d="M356 -11q-124 0 -205 73.5t-81 185.5t81 185.5t205 73.5q123 0 203.5 -73.5t80.5 -185.5t-80.5 -185.5t-203.5 -73.5zM128 248q0 -103 64.5 -171.5t163.5 -69.5q102 -1 165.5 67t60.5 174q-3 104 -66.5 172.5t-159.5 69.5q-100 1 -164 -67.5t-64 -174.5zM268 536 q-4 0 1 6l113 124q2 3 6 3h29q8 0 2 -6l-144 -125q-4 -2 -7 -2z" glyph-name="oacute" horiz-adv-x="700" unicode="ó"/><glyph d="M356 -11q-124 0 -205 73.5t-81 185.5t81 185.5t205 73.5q123 0 203.5 -73.5t80.5 -185.5t-80.5 -185.5t-203.5 -73.5zM128 248q0 -103 64.5 -171.5t163.5 -69.5q102 -1 165.5 67t60.5 174q-3 104 -66.5 172.5t-159.5 69.5q-100 1 -164 -67.5t-64 -174.5zM233 540q0 4 3 6 l119 98q4 4 8 0l117 -98q3 -2 3 -6q0 -5 -6 -1l-114 65q-5 2 -10 0l-114 -65q-6 -4 -6 1z" glyph-name="ocircumflex" horiz-adv-x="700" unicode="ô"/><glyph d="M356 -11q-124 0 -205 73.5t-81 185.5t81 185.5t205 73.5q123 0 203.5 -73.5t80.5 -185.5t-80.5 -185.5t-203.5 -73.5zM128 248q0 -103 64.5 -171.5t163.5 -69.5q102 -1 165.5 67t60.5 174q-3 104 -66.5 172.5t-159.5 69.5q-100 1 -164 -67.5t-64 -174.5zM232 595 q29 28 54.5 36.5t43 1t36 -18t34.5 -21t38.5 -8.5t47.5 21q5 4 7 0t-2 -9q-26 -28 -50.5 -37.5t-43 -3t-39 16.5t-37.5 20t-38.5 10t-42.5 -15q-4 -3 -7 -1q-5 4 -1 8z" glyph-name="otilde" horiz-adv-x="700" unicode="õ"/><glyph d="M356 -11q-124 0 -205 73.5t-81 185.5t81 185.5t205 73.5q123 0 203.5 -73.5t80.5 -185.5t-80.5 -185.5t-203.5 -73.5zM128 248q0 -103 64.5 -171.5t163.5 -69.5q102 -1 165.5 67t60.5 174q-3 104 -66.5 172.5t-159.5 69.5q-100 1 -164 -67.5t-64 -174.5zM243 592 q0 14 10.5 23.5t25.5 9.5q16 0 26.5 -9.5t10.5 -23.5q0 -13 -10.5 -22.5t-26.5 -9.5q-15 0 -25.5 9.5t-10.5 22.5zM394 592q0 14 10.5 23.5t25.5 9.5q16 0 26.5 -9.5t10.5 -23.5q0 -13 -10.5 -22.5t-26.5 -9.5q-15 0 -25.5 9.5t-10.5 22.5z" glyph-name="odieresis" horiz-adv-x="700" unicode="ö"/><glyph d="M50 323v15h460v-15h-460zM257 169q0 23 24 23q23 0 23 -23t-23 -23q-24 0 -24 23zM257 487q0 23 24 23q23 0 23 -23t-23 -23q-24 0 -24 23z" glyph-name="divide" horiz-adv-x="600" unicode="÷"/><glyph d="M356 -11q-106 0 -183 55l-110 -138h-13l115 144q-95 76 -95 198q0 112 81 185.5t205 73.5q81 0 146 -34l106 133h14l-110 -138q60 -34 94 -91.5t34 -128.5q0 -112 -80.5 -185.5t-203.5 -73.5zM128 248q0 -99 61 -168l294 369q-57 41 -127 41q-100 1 -164 -67.5 t-64 -174.5zM196 73q63 -64 160 -66q102 -1 165.5 67t60.5 174q-3 124 -90 195z" glyph-name="oslash" horiz-adv-x="700" unicode="ø"/><glyph d="M582 5q0 -5 -5 -5q-27 1 -38.5 5t-11.5 18v117q-25 -71 -81.5 -112.5t-128.5 -41.5q-113 0 -180 74t-67 197v240q0 5 5 5q27 -1 38.5 -5t11.5 -18v-222q0 -112 53 -180.5t139 -68.5q89 0 149.5 71.5t60.5 158.5v259q0 5 5 5h45q5 0 5 -5v-492zM247 694q-6 6 2 6h29 q4 0 6 -3l113 -124q4 -6 1 -6t-7 2z" glyph-name="ugrave" horiz-adv-x="632" unicode="ù"/><glyph d="M582 5q0 -5 -5 -5q-27 1 -38.5 5t-11.5 18v117q-25 -71 -81.5 -112.5t-128.5 -41.5q-113 0 -180 74t-67 197v240q0 5 5 5q27 -1 38.5 -5t11.5 -18v-222q0 -112 53 -180.5t139 -68.5q89 0 149.5 71.5t60.5 158.5v259q0 5 5 5h45q5 0 5 -5v-492zM257 548q-3 0 1 6l113 124 q1 3 6 3h29q8 0 2 -6l-144 -125q-4 -2 -7 -2z" glyph-name="uacute" horiz-adv-x="632" unicode="ú"/><glyph d="M582 5q0 -5 -5 -5q-27 1 -38.5 5t-11.5 18v117q-25 -71 -81.5 -112.5t-128.5 -41.5q-113 0 -180 74t-67 197v240q0 5 5 5q27 -1 38.5 -5t11.5 -18v-222q0 -112 53 -180.5t139 -68.5q89 0 149.5 71.5t60.5 158.5v259q0 5 5 5h45q5 0 5 -5v-492zM202 562q0 4 3 6l119 98 q4 4 8 0l117 -98q3 -2 3 -6q0 -5 -6 -1l-111 63l-6 3q-5 0 -7 -1l-114 -65q-6 -4 -6 1z" glyph-name="ucircumflex" horiz-adv-x="632" unicode="û"/><glyph d="M582 5q0 -5 -5 -5q-27 1 -38.5 5t-11.5 18v117q-25 -71 -81.5 -112.5t-128.5 -41.5q-113 0 -180 74t-67 197v240q0 5 5 5q27 -1 38.5 -5t11.5 -18v-222q0 -112 53 -180.5t139 -68.5q89 0 149.5 71.5t60.5 158.5v259q0 5 5 5h45q5 0 5 -5v-492zM215 600q0 14 10.5 23.5 t25.5 9.5q16 0 26.5 -9.5t10.5 -23.5q0 -13 -10.5 -22.5t-26.5 -9.5q-15 0 -25.5 9.5t-10.5 22.5zM366 600q0 14 10.5 23.5t25.5 9.5q16 0 26.5 -9.5t10.5 -23.5q0 -13 -10.5 -22.5t-26.5 -9.5q-15 0 -25.5 9.5t-10.5 22.5z" glyph-name="udieresis" horiz-adv-x="632" unicode="ü"/><glyph d="M319 -233q-95 0 -172 80q-3 3 0 6l12 10q3 3 6 -1q68 -71 154 -71q97 0 152 59t55 172v115q-25 -69 -81.5 -109.5t-127.5 -40.5q-113 0 -180 73.5t-67 196.5v240q0 5 6 5h-1q27 -1 38.5 -5t11.5 -18v-222q0 -111 53 -179.5t139 -68.5q91 0 150 73.5t59 157.5v255q0 5 5 5 h45q5 0 5 -5v-472q0 -122 -72.5 -189t-189.5 -67zM75 502zM254 544q-4 0 1 6l113 124q2 3 6 3h29q8 0 2 -6l-144 -125q-4 -2 -7 -2z" glyph-name="yacute" horiz-adv-x="661" unicode="ý"/><glyph d="M80 587q0 5 5 5q27 -1 38.5 -5t11.5 -18v-166q19 35 79.5 69.5t130.5 34.5q112 0 187.5 -69.5t79.5 -185.5v-6v-6q-5 -107 -80.5 -178.5t-186.5 -71.5q-73 0 -129 34t-81 91v-310q0 -5 -5 -5h-45q-5 0 -5 5v782zM135 193q0 -74 60 -124t150 -50q88 0 149 61t63 166 q-2 105 -63.5 168.5t-148.5 63.5q-143 0 -210 -104v-181z" glyph-name="thorn" horiz-adv-x="692" unicode="þ"/><glyph d="M319 -233q-95 0 -172 80q-3 3 0 6l12 10q3 3 6 -1q68 -71 154 -71q97 0 152 59t55 172v115q-25 -69 -81.5 -109.5t-127.5 -40.5q-113 0 -180 73.5t-67 196.5v240q0 5 6 5h-1q27 -1 38.5 -5t11.5 -18v-222q0 -111 53 -179.5t139 -68.5q91 0 150 73.5t59 157.5v255q0 5 5 5 h45q5 0 5 -5v-472q0 -122 -72.5 -189t-189.5 -67zM75 502zM218 600q0 14 10.5 23.5t25.5 9.5q16 0 26.5 -9.5t10.5 -23.5q0 -13 -10.5 -22.5t-26.5 -9.5q-15 0 -25.5 9.5t-10.5 22.5zM369 600q0 14 10.5 23.5t25.5 9.5q16 0 26.5 -9.5t10.5 -23.5q0 -13 -10.5 -22.5 t-26.5 -9.5q-15 0 -25.5 9.5t-10.5 22.5z" glyph-name="ydieresis" horiz-adv-x="661" unicode="ÿ"/><glyph d="M651 0q-4 0 -6 4l-279 632l-162 -383h298l5 -11h-307l-101 -238q-2 -4 -6 -4h-7q-5 0 -3 6l296 690q1 4 5 4h13q4 0 6 -4l301 -690q2 -6 -3 -6h-50zM307 768v10q0 5 5 5h150q5 0 5 -5v-10q0 -5 -5 -5h-150q-5 0 -5 5z" glyph-name="Amacron" horiz-adv-x="787" unicode="Ā"/><glyph d="M602 2q0 -5 -5 -5h-45q-5 0 -5 5v111q-25 -56 -81 -89.5t-129 -33.5q-111 0 -186.5 71.5t-80.5 178.5v6v6q4 116 79.5 185t187.5 69q76 0 130 -31.5t80 -73.5v81q1 6 4.5 9.5t11.5 5.5t13.5 2t20.5 1q5 0 5 -5v-493zM126 246q2 -106 63 -171t148 -65q89 0 149.5 55 t60.5 130v171q-31 47 -85 83.5t-125 36.5q-86 0 -147.5 -66.5t-63.5 -173.5zM281 585v10q0 5 5 5h150q5 0 5 -5v-10q0 -5 -5 -5h-150q-5 0 -5 5z" glyph-name="amacron" horiz-adv-x="672" unicode="ā"/><glyph d="M651 0q-4 0 -6 4l-279 632l-162 -383h298l5 -11h-307l-101 -238q-2 -4 -6 -4h-7q-5 0 -3 6l296 690q1 4 5 4h13q4 0 6 -4l301 -690q2 -6 -3 -6h-50zM259 841q2 2 6 -1q43 -38 119.5 -38t121.5 38q4 4 6 1q2 -2 -1 -6q-46 -67 -126 -67t-125 67q-3 4 -1 6z" glyph-name="Abreve" horiz-adv-x="787" unicode="Ă"/><glyph d="M602 2q0 -5 -5 -5h-45q-5 0 -5 5v111q-25 -56 -81 -89.5t-129 -33.5q-111 0 -186.5 71.5t-80.5 178.5v6v6q4 116 79.5 185t187.5 69q76 0 130 -31.5t80 -73.5v81q1 6 4.5 9.5t11.5 5.5t13.5 2t20.5 1q5 0 5 -5v-493zM126 246q2 -106 63 -171t148 -65q89 0 149.5 55 t60.5 130v171q-31 47 -85 83.5t-125 36.5q-86 0 -147.5 -66.5t-63.5 -173.5zM229 648q2 2 6 -1q44 -37 120 -37t121 37q4 3 6 1t-1 -6q-47 -67 -126.5 -67t-124.5 67q-3 4 -1 6z" glyph-name="abreve" horiz-adv-x="672" unicode="ă"/><glyph d="M651 0q-4 0 -6 4l-279 632l-162 -383h298l5 -11h-307l-101 -238q-2 -4 -6 -4h-7q-5 0 -3 6l296 690q1 4 5 4h13q4 0 6 -4l301 -690q2 -6 -3 -6h1q-30 0 -64.5 -29.5t-34.5 -55.5q0 -32 20.5 -51t57.5 -20q5 0 5 -2t-5 -2q-53 1 -83 21t-30 53q0 37 29 61.5t65 24.5h-11z " glyph-name="Aogonek" horiz-adv-x="787" unicode="Ą"/><glyph d="M602 2v-2h1h-1q-2 -3 -5 -3h-12q-29 -8 -55 -34.5t-26 -47.5q0 -32 20.5 -51t57.5 -20q5 0 5 -2t-5 -2q-53 1 -83 21t-30 53q0 32 23.5 55.5t55.5 29.5q-1 1 -1 3v111q-25 -56 -81 -89.5t-129 -33.5q-111 0 -186.5 71.5t-80.5 178.5v6v6q4 116 79.5 185t187.5 69 q76 0 130 -31.5t80 -73.5v81q1 6 4.5 9.5t11.5 5.5t13.5 2t20.5 1q5 0 5 -5v-493zM126 246q2 -106 63 -171t148 -65q89 0 149.5 55t60.5 130v171q-31 47 -85 83.5t-125 36.5q-86 0 -147.5 -66.5t-63.5 -173.5z" glyph-name="aogonek" horiz-adv-x="672" unicode="ą"/><glyph d="M431 -12q-151 0 -251 106t-100 265q0 152 100.5 252t252.5 100q97 0 167 -48t113 -126q3 -6 -4 -6h-34q-5 0 -6 3q-91 162 -236 162q-129 0 -213 -97.5t-84 -239.5q0 -150 83.5 -252.5t211.5 -102.5q62 0 126 38t105 100q2 3 6 3h38q7 0 3 -6q-50 -72 -125.5 -111.5 t-152.5 -39.5zM358 751q-4 0 1 6l113 124q2 3 6 3h29q8 0 2 -6l-144 -125q-4 -2 -7 -2z" glyph-name="Cacute" horiz-adv-x="788" unicode="Ć"/><glyph d="M70 248q0 115 77.5 189t196.5 74q81 0 144.5 -37.5t95.5 -102.5q3 -6 -4 -6h-46q-3 0 -6 4q-25 59 -73 92.5t-111 34.5q-89 1 -152.5 -70.5t-63.5 -177.5t63.5 -177.5t152.5 -70.5q63 1 111 34.5t73 92.5q3 4 6 4h46q7 0 4 -6q-32 -65 -95.5 -102.5t-144.5 -37.5 q-118 0 -196 74.5t-78 188.5zM261 553q-3 0 1 6l113 124q1 3 6 3h29q8 0 2 -6l-144 -125q-4 -2 -7 -2z" glyph-name="cacute" horiz-adv-x="655" unicode="ć"/><glyph d="M431 -12q-151 0 -251 106t-100 265q0 152 100.5 252t252.5 100q97 0 167 -48t113 -126q3 -6 -4 -6h-34q-5 0 -6 3q-91 162 -236 162q-129 0 -213 -97.5t-84 -239.5q0 -150 83.5 -252.5t211.5 -102.5q62 0 126 38t105 100q2 3 6 3h38q7 0 3 -6q-50 -72 -125.5 -111.5 t-152.5 -39.5zM395 783q0 14 10.5 23.5t25.5 9.5q16 0 26.5 -9.5t10.5 -23.5q0 -13 -10.5 -22.5t-26.5 -9.5q-15 0 -25.5 9.5t-10.5 22.5z" glyph-name="Cdotaccent" horiz-adv-x="788" unicode="Ċ"/><glyph d="M70 248q0 115 77.5 189t196.5 74q81 0 144.5 -37.5t95.5 -102.5q3 -6 -4 -6h-46q-3 0 -6 4q-25 59 -73 92.5t-111 34.5q-89 1 -152.5 -70.5t-63.5 -177.5t63.5 -177.5t152.5 -70.5q63 1 111 34.5t73 92.5q3 4 6 4h46q7 0 4 -6q-32 -65 -95.5 -102.5t-144.5 -37.5 q-118 0 -196 74.5t-78 188.5zM310 600q0 14 10.5 23.5t25.5 9.5q16 0 26.5 -9.5t10.5 -23.5q0 -13 -10.5 -22.5t-26.5 -9.5q-15 0 -25.5 9.5t-10.5 22.5z" glyph-name="cdotaccent" horiz-adv-x="655" unicode="ċ"/><glyph d="M431 -12q-151 0 -251 106t-100 265q0 152 100.5 252t252.5 100q97 0 167 -48t113 -126q3 -6 -4 -6h-34q-5 0 -6 3q-91 162 -236 162q-129 0 -213 -97.5t-84 -239.5q0 -150 83.5 -252.5t211.5 -102.5q62 0 126 38t105 100q2 3 6 3h38q7 0 3 -6q-50 -72 -125.5 -111.5 t-152.5 -39.5zM293 862q0 5 6 1l114 -65q5 -2 10 0l114 65q6 4 6 -1q0 -4 -3 -6l-119 -98q-4 -4 -8 0l-117 98q-3 2 -3 6z" glyph-name="Ccaron" horiz-adv-x="788" unicode="Č"/><glyph d="M70 248q0 115 77.5 189t196.5 74q81 0 144.5 -37.5t95.5 -102.5q3 -6 -4 -6h-46q-3 0 -6 4q-25 59 -73 92.5t-111 34.5q-89 1 -152.5 -70.5t-63.5 -177.5t63.5 -177.5t152.5 -70.5q63 1 111 34.5t73 92.5q3 4 6 4h46q7 0 4 -6q-32 -65 -95.5 -102.5t-144.5 -37.5 q-118 0 -196 74.5t-78 188.5zM227 671q0 5 6 1l114 -65q5 -2 10 0l114 65q6 4 6 -1t-3 -6l-119 -98q-4 -4 -8 0l-117 98q-3 1 -3 6z" glyph-name="ccaron" horiz-adv-x="655" unicode="č"/><glyph d="M85 0q-5 0 -5 5v690q0 5 5 5h194q193 0 302 -90t109 -251q0 -169 -108.5 -264t-302.5 -95h-194zM135 17h145q164 0 258 88t98 246q1 157 -94.5 245.5t-266.5 89.5l-140 1v-670zM224 858q0 5 6 1l114 -65q5 -2 10 0l114 65q6 4 6 -1q0 -4 -3 -6l-119 -98q-4 -4 -8 0 l-117 98q-3 2 -3 6z" glyph-name="Dcaron" horiz-adv-x="770" unicode="Ď"/><glyph d="M602 5q0 -5 -5 -5q-18 1 -27 2t-16 6t-7 14v93q-25 -57 -81 -91t-129 -34q-111 0 -186.5 71.5t-80.5 178.5v6v6q4 116 79.5 185.5t187.5 69.5q70 0 130.5 -34.5t79.5 -69.5v284q0 5 5 5h45q5 0 5 -5v-682zM125 246q2 -105 63 -166t149 -61q90 0 150 50t60 124v181 q-67 104 -210 104q-87 0 -148.5 -63.5t-63.5 -168.5zM675 584q-6 4 1 8q15 14 16.5 29t-5 34.5t-6.5 26.5l53 1q2 -40 -10 -63.5t-49 -35.5z" glyph-name="dcaron" horiz-adv-x="770" unicode="ď"/><glyph d="M152 0q-5 0 -5 5v327h-62q-5 0 -5 5v6q0 5 5 5h62v347q0 5 5 5h194q193 0 302 -90t109 -251q0 -169 -108.5 -264t-302.5 -95h-194zM202 17h145q164 0 258 88t98 246q1 157 -94.5 245.5t-266.5 89.5l-140 1v-339h195q5 0 5 -5v-6q0 -5 -5 -5h-195v-315z" glyph-name="Dcroat" horiz-adv-x="837" unicode="Đ"/><glyph d="M602 5q0 -5 -5 -5q-18 1 -27 2t-16 6t-7 14v93q-25 -57 -81 -91t-129 -34q-111 0 -186.5 71.5t-80.5 178.5v6v6q4 116 79.5 185.5t187.5 69.5q70 0 130.5 -34.5t79.5 -69.5v195h-150v10h150v79q0 5 5 5h45q5 0 5 -5v-79h55v-10h-55v-593zM125 246q2 -105 63 -166t149 -61 q90 0 150 50t60 124v181q-67 104 -210 104q-87 0 -148.5 -63.5t-63.5 -168.5z" glyph-name="dcroat" horiz-adv-x="662" unicode="đ"/><glyph d="M80 695q0 5 5 5h436q5 0 5 -5v-1q0 -5 -5 -5h-386v-279h306q5 0 5 -5v-1q0 -5 -5 -5h-306v-388h406q5 0 5 -5v-1q0 -5 -5 -5h-456q-5 0 -5 5v690zM238 793v10q0 5 5 5h150q5 0 5 -5v-10q0 -5 -5 -5h-150q-5 0 -5 5z" glyph-name="Emacron" horiz-adv-x="626" unicode="Ē"/><glyph d="M610 263q0 -5 -5 -5h-477v-10q-2 -102 61.5 -173t160.5 -71q71 0 129 39t83 96q3 4 6 4h26q6 0 4 -6q-30 -66 -100.5 -109t-147.5 -43q-120 0 -200 74.5t-80 188.5q0 115 78 189t196 74q112 0 188 -70t78 -178zM130 276h420q-5 95 -63 157t-143 63q-82 1 -142.5 -61 t-71.5 -159zM267 588v10q0 5 5 5h150q5 0 5 -5v-10q0 -5 -5 -5h-150q-5 0 -5 5z" glyph-name="emacron" horiz-adv-x="650" unicode="ē"/><glyph d="M80 695q0 5 5 5h436q5 0 5 -5v-1q0 -5 -5 -5h-386v-279h306q5 0 5 -5v-1q0 -5 -5 -5h-306v-388h406q5 0 5 -5v-1q0 -5 -5 -5h-456q-5 0 -5 5v690zM283 800q0 14 10.5 23.5t25.5 9.5q16 0 26.5 -9.5t10.5 -23.5q0 -13 -10.5 -22.5t-26.5 -9.5q-15 0 -25.5 9.5t-10.5 22.5z " glyph-name="Edotaccent" horiz-adv-x="626" unicode="Ė"/><glyph d="M610 263q0 -5 -5 -5h-477v-10q-2 -102 61.5 -173t160.5 -71q71 0 129 39t83 96q3 4 6 4h26q6 0 4 -6q-30 -66 -100.5 -109t-147.5 -43q-120 0 -200 74.5t-80 188.5q0 115 78 189t196 74q112 0 188 -70t78 -178zM130 276h420q-5 95 -63 157t-143 63q-82 1 -142.5 -61 t-71.5 -159zM313 605q0 14 10.5 23.5t25.5 9.5q16 0 26.5 -9.5t10.5 -23.5q0 -13 -10.5 -22.5t-26.5 -9.5q-15 0 -25.5 9.5t-10.5 22.5z" glyph-name="edotaccent" horiz-adv-x="650" unicode="ė"/><glyph d="M80 695q0 5 5 5h436q5 0 5 -5v-1q0 -5 -5 -5h-386v-279h306q5 0 5 -5v-1q0 -5 -5 -5h-306v-388h406q5 0 5 -5v-1q0 -5 -5 -5h7q-30 0 -64.5 -29.5t-34.5 -55.5q0 -32 20.5 -51t57.5 -20q5 0 5 -2t-5 -2q-53 1 -83 21t-30 53q0 37 29 61.5t65 24.5h-423q-5 0 -5 5v690z " glyph-name="Eogonek" horiz-adv-x="626" unicode="Ę"/><glyph d="M610 263q0 -5 -5 -5h-477v-10q-2 -102 61.5 -173t160.5 -71q71 0 129 39t83 96q3 4 6 4h26q6 0 4 -6q-30 -66 -100.5 -109t-147.5 -43q-120 0 -200 74.5t-80 188.5q0 115 78 189t196 74q112 0 188 -70t78 -178zM130 276h420q-5 95 -63 157t-143 63q-82 1 -142.5 -61 t-71.5 -159zM250 -102q0 37 29 61.5t65 24.5h40q-30 0 -64.5 -29.5t-34.5 -55.5q0 -32 20.5 -51t57.5 -20q5 0 5 -2t-5 -2q-53 1 -83 21t-30 53z" glyph-name="eogonek" horiz-adv-x="650" unicode="ę"/><glyph d="M80 695q0 5 5 5h436q5 0 5 -5v-1q0 -5 -5 -5h-386v-279h306q5 0 5 -5v-1q0 -5 -5 -5h-306v-388h406q5 0 5 -5v-1q0 -5 -5 -5h-456q-5 0 -5 5v690zM194 865q0 5 6 1l114 -65q5 -2 10 0l114 65q6 4 6 -1t-3 -6l-119 -98q-4 -4 -8 0l-117 98q-3 1 -3 6z" glyph-name="Ecaron" horiz-adv-x="626" unicode="Ě"/><glyph d="M610 263q0 -5 -5 -5h-477v-10q-2 -102 61.5 -173t160.5 -71q71 0 129 39t83 96q3 4 6 4h26q6 0 4 -6q-30 -66 -100.5 -109t-147.5 -43q-120 0 -200 74.5t-80 188.5q0 115 78 189t196 74q112 0 188 -70t78 -178zM130 276h420q-5 95 -63 157t-143 63q-82 1 -142.5 -61 t-71.5 -159zM227 666q0 5 6 1l114 -65q5 -2 10 0l114 65q6 4 6 -1q0 -4 -3 -6l-119 -98q-4 -4 -8 0l-117 98q-3 2 -3 6z" glyph-name="ecaron" horiz-adv-x="650" unicode="ě"/><glyph d="M441 -14q-154 0 -257.5 107t-103.5 266q0 152 101 254t252 102q89 0 161 -39t113 -109q3 -6 -4 -6h-32q-5 0 -6 3q-41 63 -102.5 98t-129.5 35q-127 0 -212 -98.5t-85 -239.5q0 -149 87.5 -252.5t217.5 -103.5q73 0 134 39.5t96 105.5v166h-164q-5 0 -5 5v2q0 5 5 5h214 q5 0 5 -5v-173q-37 -75 -112.5 -118.5t-172.5 -43.5zM307 821q2 2 6 -1q43 -38 119.5 -38t121.5 38q4 4 6 1q2 -2 -1 -6q-47 -67 -126.5 -67t-124.5 67q-3 4 -1 6z" glyph-name="Gbreve" horiz-adv-x="807" unicode="Ğ"/><glyph d="M354 -235q-112 0 -175 82q-6 6 0 6h1q3 0 7 -2q40 -35 78 -46t89 -11q87 0 139.5 59.5t52.5 168.5v91q-25 -56 -81 -89.5t-128 -33.5q-111 0 -186.5 71.5t-80.5 178.5v6v6q4 116 79.5 185.5t187.5 69.5q68 0 128 -33.5t81 -68.5v72q0 14 11.5 18t38.5 5q5 0 5 -5v-473 q0 -122 -66.5 -189.5t-180.5 -67.5zM125 246q2 -105 63 -166t149 -61q84 0 142.5 44t66.5 112v201q-67 102 -209 102q-87 0 -148.5 -64t-63.5 -168zM221 636q2 2 6 -1q43 -37 119.5 -37t121.5 37q4 3 6 1t-1 -6q-47 -67 -126.5 -67t-124.5 67q-3 4 -1 6z" glyph-name="gbreve" horiz-adv-x="671" unicode="ğ"/><glyph d="M441 -14q-154 0 -257.5 107t-103.5 266q0 152 101 254t252 102q89 0 161 -39t113 -109q3 -6 -4 -6h-32q-5 0 -6 3q-41 63 -102.5 98t-129.5 35q-127 0 -212 -98.5t-85 -239.5q0 -149 87.5 -252.5t217.5 -103.5q73 0 134 39.5t96 105.5v166h-164q-5 0 -5 5v2q0 5 5 5h214 q5 0 5 -5v-173q-37 -75 -112.5 -118.5t-172.5 -43.5zM395 782q0 14 10.5 23.5t25.5 9.5q16 0 26.5 -9.5t10.5 -23.5q0 -13 -10.5 -22.5t-26.5 -9.5q-15 0 -25.5 9.5t-10.5 22.5z" glyph-name="Gdotaccent" horiz-adv-x="807" unicode="Ġ"/><glyph d="M354 -235q-112 0 -175 82q-6 6 0 6h1q3 0 7 -2q40 -35 78 -46t89 -11q87 0 139.5 59.5t52.5 168.5v91q-25 -56 -81 -89.5t-128 -33.5q-111 0 -186.5 71.5t-80.5 178.5v6v6q4 116 79.5 185.5t187.5 69.5q68 0 128 -33.5t81 -68.5v72q0 14 11.5 18t38.5 5q5 0 5 -5v-473 q0 -122 -66.5 -189.5t-180.5 -67.5zM125 246q2 -105 63 -166t149 -61q84 0 142.5 44t66.5 112v201q-67 102 -209 102q-87 0 -148.5 -64t-63.5 -168zM324 599q0 14 10.5 23.5t25.5 9.5q16 0 26.5 -9.5t10.5 -23.5q0 -13 -10.5 -22.5t-26.5 -9.5q-15 0 -25.5 9.5t-10.5 22.5z " glyph-name="gdotaccent" horiz-adv-x="671" unicode="ġ"/><glyph d="M441 -14q-154 0 -257.5 107t-103.5 266q0 152 101 254t252 102q89 0 161 -39t113 -109q3 -6 -4 -6h-32q-5 0 -6 3q-41 63 -102.5 98t-129.5 35q-127 0 -212 -98.5t-85 -239.5q0 -149 87.5 -252.5t217.5 -103.5q73 0 134 39.5t96 105.5v166h-164q-5 0 -5 5v2q0 5 5 5h214 q5 0 5 -5v-173q-37 -75 -112.5 -118.5t-172.5 -43.5zM414 -153q-6 4 1 8q11 10 14.5 22.5t2 21t-5.5 22t-5 19.5q-2 5 4 5l43 1q5 0 5 -4q2 -38 -10.5 -61t-48.5 -34z" glyph-name="uni0122" horiz-adv-x="807" unicode="Ģ"/><glyph d="M354 -235q-112 0 -175 82q-6 6 0 6h1q3 0 7 -2q40 -35 78 -46t89 -11q87 0 139.5 59.5t52.5 168.5v91q-25 -56 -81 -89.5t-128 -33.5q-111 0 -186.5 71.5t-80.5 178.5v6v6q4 116 79.5 185.5t187.5 69.5q68 0 128 -33.5t81 -68.5v72q0 14 11.5 18t38.5 5q5 0 5 -5v-473 q0 -122 -66.5 -189.5t-180.5 -67.5zM125 246q2 -105 63 -166t149 -61q84 0 142.5 44t66.5 112v201q-67 102 -209 102q-87 0 -148.5 -64t-63.5 -168zM310 584q-2 40 10 63.5t49 35.5q6 -4 -1 -8q-15 -14 -16.5 -29t5 -34.5t6.5 -26.5z" glyph-name="uni0123" horiz-adv-x="671" unicode="ģ"/><glyph d="M25 508v10h55v177q0 5 5 5h45q5 0 5 -5v-177h442v177q0 5 5 5h45q5 0 5 -5v-177h53v-10h-53v-503q0 -5 -5 -5h-45q-5 0 -5 5v503h-442v-143h412v-11h-412v-349q0 -5 -5 -5h-45q-5 0 -5 5v503h-55z" glyph-name="Hbar" horiz-adv-x="712" unicode="Ħ"/><glyph d="M70 725q0 5 5 5h45q5 0 5 -5v-115h121v-10h-121v-240q24 67 81 104.5t129 37.5q114 0 180.5 -67.5t66.5 -189.5v-240q0 -5 -5 -5q-27 1 -38.5 5t-11.5 18v222q0 109 -52 168.5t-140 59.5q-90 0 -149.5 -60t-60.5 -145v-263q0 -5 -5 -5h-45q-5 0 -5 5v595h-84v10h84v115z " glyph-name="hbar" horiz-adv-x="662" unicode="ħ"/><glyph d="M85 0q-5 0 -5 5v690q0 5 5 5h45q5 0 5 -5v-690q0 -5 -5 -5h-45zM-17 791q-4 4 0 8q30 26 56 33.5t43 0t35 -19t33.5 -22.5t38 -9.5t48.5 19.5q5 3 7 -1t-2 -9q-27 -27 -52 -35.5t-43.5 -1.5t-38 17.5t-36.5 22t-38.5 11.5t-43.5 -14q-4 -3 -7 0z" glyph-name="Itilde" horiz-adv-x="215" unicode="Ĩ"/><glyph d="M135 5q0 -5 -5 -5q-27 1 -38.5 5t-11.5 18v472q0 5 5 5h45q5 0 5 -5v-490zM-22 622q32 29 58.5 37.5t44 0.5t36 -20t34.5 -23t39.5 -8.5t50.5 22.5l4 -8q-28 -30 -54 -39.5t-45 -3t-39 18t-37 22.5t-39.5 11t-45.5 -17z" glyph-name="itilde" horiz-adv-x="225" unicode="ĩ"/><glyph d="M85 0q-5 0 -5 5v690q0 5 5 5h45q5 0 5 -5v-690q0 -5 -5 -5h-45zM27 762v10q0 5 5 5h150q5 0 5 -5v-10q0 -5 -5 -5h-150q-5 0 -5 5z" glyph-name="Imacron" horiz-adv-x="215" unicode="Ī"/><glyph d="M135 5q0 -5 -5 -5q-27 1 -38.5 5t-11.5 18v472q0 5 5 5h45q5 0 5 -5v-490zM27 610v10q0 5 5 5h150q5 0 5 -5v-10q0 -5 -5 -5h-150q-5 0 -5 5z" glyph-name="imacron" horiz-adv-x="225" unicode="ī"/><glyph d="M85 0q-5 0 -5 5v690q0 5 5 5h45q5 0 5 -5v-690q0 -5 -5 -5h29q-30 0 -64.5 -29.5t-34.5 -55.5q0 -32 20.5 -51t57.5 -20q5 0 5 -2t-5 -2q-53 1 -83 21t-30 53q0 37 29 61.5t65 24.5h-34z" glyph-name="Iogonek" horiz-adv-x="215" unicode="Į"/><glyph d="M135 5q0 -2 -2 -4h2h-2q-1 -1 -3 -1h-4q-30 -5 -60 -33t-30 -51q0 -32 20.5 -51t57.5 -20q5 0 5 -2t-5 -2q-53 1 -83 21t-30 53q0 37 29 61.5t65 24.5h16q-31 3 -31 22v472q0 5 5 5h45q5 0 5 -5v-490z" glyph-name="iogonek" horiz-adv-x="225" unicode="į"/><glyph d="M85 0q-5 0 -5 5v690q0 5 5 5h45q5 0 5 -5v-690q0 -5 -5 -5h-45zM70 777q0 14 10.5 23.5t25.5 9.5q16 0 26.5 -9.5t10.5 -23.5q0 -13 -10.5 -22.5t-26.5 -9.5q-15 0 -25.5 9.5t-10.5 22.5z" glyph-name="Idotaccent" horiz-adv-x="215" unicode="İ"/><glyph d="M135 5q0 -5 -5 -5q-27 1 -38.5 5t-11.5 18v472q0 5 5 5h45q5 0 5 -5v-490z" glyph-name="dotlessi" horiz-adv-x="225" unicode="ı"/><glyph d="M85 0q-5 0 -5 5v690q0 5 5 5h45q5 0 5 -5v-690q0 -5 -5 -5h-45zM269 185q0 5 5 5h28q5 0 5 -5q2 -76 52 -127t129 -51q87 0 130.5 55.5t43.5 147.5v485q0 5 5 5h45q5 0 5 -5v-485q0 -100 -64.5 -159.5t-164.5 -59.5q-87 0 -152 56t-67 138z" glyph-name="IJ" horiz-adv-x="797" unicode="Ĳ"/><glyph d="M281 -157q-6 4 1 8q11 10 14.5 22.5t2 21t-5.5 22t-5 19.5q-2 5 4 5l43 1q5 0 5 -4q2 -38 -10.5 -61t-48.5 -34zM80 5v690q0 5 5 5h45q5 0 5 -5v-371l373 373q3 3 6 3h6q3 0 5.5 -2t0.5 -4l-308 -309l390 -379q6 -6 -3 -6h-54q-5 0 -7 2l-361 348l-48 -48v-297 q0 -5 -5 -5h-45q-5 0 -5 5z" glyph-name="uni0136" horiz-adv-x="694" unicode="Ķ"/><glyph d="M445 0q-5 0 -7 2l-275 273l-38 -30v-240q0 -5 -5 -5h-45q-5 0 -5 5v720q0 5 5 5q27 -1 38.5 -5t11.5 -18v-440l303 231q4 2 6 2h13q8 0 2 -6l-249 -191l296 -297q6 -6 -3 -6h-48zM229 -171q-6 4 1 8q11 10 14.5 22.5t2 21t-5.5 22t-5 19.5q-2 5 4 5l43 1q5 0 5 -4 q2 -38 -10.5 -61t-48.5 -34z" glyph-name="uni0137" horiz-adv-x="567" unicode="ķ"/><glyph d="M85 0q-5 0 -5 5v690q0 5 5 5h45q5 0 5 -5v-684h406q5 0 5 -5v-1q0 -5 -5 -5h-456zM231 729q-3 0 1 6l113 124q1 3 6 3h29q8 0 2 -6l-144 -125q-4 -2 -7 -2z" glyph-name="Lacute" horiz-adv-x="626" unicode="Ĺ"/><glyph d="M70 725q0 5 5 5h45q5 0 5 -5v-720q0 -5 -5 -5q-27 1 -38.5 5t-11.5 18v702zM18 760q-4 0 1 6l113 124q2 3 6 3h29q8 0 2 -6l-144 -125q-4 -2 -7 -2z" glyph-name="lacute" horiz-adv-x="225" unicode="ĺ"/><glyph d="M85 0q-5 0 -5 5v690q0 5 5 5h45q5 0 5 -5v-684h406q5 0 5 -5v-1q0 -5 -5 -5h-456zM281 -171q-6 4 1 8q11 10 14.5 22.5t2 21t-5.5 22t-5 19.5q-2 5 4 5l43 1q5 0 5 -4q2 -38 -10.5 -61t-48.5 -34z" glyph-name="uni013B" horiz-adv-x="626" unicode="Ļ"/><glyph d="M70 725q0 5 5 5h45q5 0 5 -5v-720q0 -5 -5 -5q-27 1 -38.5 5t-11.5 18v702zM59 -154q-6 4 1 8q11 10 14.5 22.5t2 21t-5.5 22t-5 19.5q-2 5 4 5l43 1q5 0 5 -4q2 -38 -10.5 -61t-48.5 -34z" glyph-name="uni013C" horiz-adv-x="225" unicode="ļ"/><glyph d="M85 0q-5 0 -5 5v690q0 5 5 5h45q5 0 5 -5v-684h406q5 0 5 -5v-1q0 -5 -5 -5h-456zM186 839q0 5 6 1l114 -65q5 -2 10 0l114 65q6 4 6 -1t-3 -6l-119 -98q-4 -4 -8 0l-117 98q-3 1 -3 6z" glyph-name="Lcaron" horiz-adv-x="626" unicode="Ľ"/><glyph d="M70 725q0 5 5 5h45q5 0 5 -5v-720q0 -5 -5 -5q-27 1 -38.5 5t-11.5 18v702zM-26 866q0 5 6 1l114 -65q5 -2 10 0l114 65q6 4 6 -1q0 -4 -3 -6l-119 -98q-4 -4 -8 0l-117 98q-3 2 -3 6z" glyph-name="lcaron" horiz-adv-x="225" unicode="ľ"/><glyph d="M85 0q-5 0 -5 5v267l-128 -178h-13l141 197v404q0 5 5 5h45q5 0 5 -5v-327l162 226h14l-176 -245v-338h406q5 0 5 -5v-1q0 -5 -5 -5h-456z" glyph-name="Lslash" horiz-adv-x="626" unicode="Ł"/><glyph d="M70 725q0 5 5 5h45q5 0 5 -5v-377l176 246h14l-190 -265v-324q0 -5 -5 -5q-27 1 -38.5 5t-11.5 18v230l-114 -159h-13l127 177v454z" glyph-name="lslash" horiz-adv-x="225" unicode="ł"/><glyph d="M80 695q0 5 5 5h61q4 0 6 -3l469 -614v612q0 5 5 5h4q5 0 5 -5v-690q0 -5 -5 -5h-19l-517 682v-677q0 -5 -5 -5h-4q-5 0 -5 5v690zM304 743q-4 0 1 6l113 124q2 3 6 3h29q8 0 2 -6l-144 -125q-4 -2 -7 -2z" glyph-name="Nacute" horiz-adv-x="715" unicode="Ń"/><glyph d="M70 495q0 5 5 5q27 -1 38.5 -5t11.5 -18v-116q25 69 81.5 108.5t128.5 39.5q114 0 180.5 -70.5t66.5 -193.5v-240q0 -5 -5 -5q-27 1 -38.5 5t-11.5 18v222q0 110 -52.5 173.5t-139.5 63.5q-90 0 -149.5 -64t-60.5 -150v-263q0 -5 -5 -5h-45q-5 0 -5 5v490zM248 549 q-4 0 1 6l113 124q2 3 6 3h29q8 0 2 -6l-144 -125q-4 -2 -7 -2z" glyph-name="nacute" horiz-adv-x="642" unicode="ń"/><glyph d="M80 695q0 5 5 5h61q4 0 6 -3l469 -614v612q0 5 5 5h4q5 0 5 -5v-690q0 -5 -5 -5h-19l-517 682v-677q0 -5 -5 -5h-4q-5 0 -5 5v690zM310 -159q-6 4 1 8q11 10 14.5 22.5t2 21t-5.5 22t-5 19.5q-2 5 4 5l43 1q5 0 5 -4q2 -38 -10.5 -61t-48.5 -34z" glyph-name="uni0145" horiz-adv-x="715" unicode="Ņ"/><glyph d="M70 495q0 5 5 5q27 -1 38.5 -5t11.5 -18v-116q25 69 81.5 108.5t128.5 39.5q114 0 180.5 -70.5t66.5 -193.5v-240q0 -5 -5 -5q-27 1 -38.5 5t-11.5 18v222q0 110 -52.5 173.5t-139.5 63.5q-90 0 -149.5 -64t-60.5 -150v-263q0 -5 -5 -5h-45q-5 0 -5 5v490zM266 -171 q-6 4 1 8q11 10 14.5 22.5t2 21t-5.5 22t-5 19.5q-2 5 4 5l43 1q5 0 5 -4q2 -38 -10.5 -61t-48.5 -34z" glyph-name="uni0146" horiz-adv-x="642" unicode="ņ"/><glyph d="M80 695q0 5 5 5h61q4 0 6 -3l469 -614v612q0 5 5 5h4q5 0 5 -5v-690q0 -5 -5 -5h-19l-517 682v-677q0 -5 -5 -5h-4q-5 0 -5 5v690zM239 841q0 5 6 1l114 -65q5 -2 10 0l114 65q6 4 6 -1t-3 -6l-119 -98q-4 -4 -8 0l-117 98q-3 1 -3 6z" glyph-name="Ncaron" horiz-adv-x="715" unicode="Ň"/><glyph d="M70 495q0 5 5 5q27 -1 38.5 -5t11.5 -18v-116q25 69 81.5 108.5t128.5 39.5q114 0 180.5 -70.5t66.5 -193.5v-240q0 -5 -5 -5q-27 1 -38.5 5t-11.5 18v222q0 110 -52.5 173.5t-139.5 63.5q-90 0 -149.5 -64t-60.5 -150v-263q0 -5 -5 -5h-45q-5 0 -5 5v490zM163 670 q0 5 6 1l114 -65q5 -2 10 0l114 65q6 4 6 -1q0 -4 -3 -6l-119 -98q-4 -4 -8 0l-117 98q-3 2 -3 6z" glyph-name="ncaron" horiz-adv-x="642" unicode="ň"/><glyph d="M444 -19q-156 0 -260 105t-104 262q0 158 104 263t260 105q155 0 258.5 -105t103.5 -263q0 -157 -103.5 -262t-258.5 -105zM139 348q0 -148 87 -249t218 -103q134 -2 220.5 99t82.5 253q-4 151 -91 251.5t-212 101.5q-131 2 -218 -99t-87 -254zM362 788v10q0 5 5 5h150 q5 0 5 -5v-10q0 -5 -5 -5h-150q-5 0 -5 5z" glyph-name="Omacron" horiz-adv-x="886" unicode="Ō"/><glyph d="M356 -11q-124 0 -205 73.5t-81 185.5t81 185.5t205 73.5q123 0 203.5 -73.5t80.5 -185.5t-80.5 -185.5t-203.5 -73.5zM128 248q0 -103 64.5 -171.5t163.5 -69.5q102 -1 165.5 67t60.5 174q-3 104 -66.5 172.5t-159.5 69.5q-100 1 -164 -67.5t-64 -174.5zM275 577v10 q0 5 5 5h150q5 0 5 -5v-10q0 -5 -5 -5h-150q-5 0 -5 5z" glyph-name="omacron" horiz-adv-x="700" unicode="ō"/><glyph d="M444 -19q-156 0 -260 105t-104 262q0 158 104 263t260 105q155 0 258.5 -105t103.5 -263q0 -157 -103.5 -262t-258.5 -105zM139 348q0 -148 87 -249t218 -103q134 -2 220.5 99t82.5 253q-4 151 -91 251.5t-212 101.5q-131 2 -218 -99t-87 -254zM352 746q-4 0 1 6l113 124 q2 3 6 3h29q8 0 2 -6l-144 -125q-4 -2 -7 -2zM424 746q-4 0 1 6l113 124q2 3 6 3h29q8 0 2 -6l-144 -125q-4 -2 -7 -2z" glyph-name="Ohungarumlaut" horiz-adv-x="886" unicode="Ő"/><glyph d="M356 -11q-124 0 -205 73.5t-81 185.5t81 185.5t205 73.5q123 0 203.5 -73.5t80.5 -185.5t-80.5 -185.5t-203.5 -73.5zM128 248q0 -103 64.5 -171.5t163.5 -69.5q102 -1 165.5 67t60.5 174q-3 104 -66.5 172.5t-159.5 69.5q-100 1 -164 -67.5t-64 -174.5zM261 545 q-3 0 1 6l113 124q1 3 6 3h29q8 0 2 -6l-144 -125q-4 -2 -7 -2zM333 545q-3 0 1 6l113 124q1 3 6 3h29q8 0 2 -6l-144 -125q-4 -2 -7 -2z" glyph-name="ohungarumlaut" horiz-adv-x="700" unicode="ő"/><glyph d="M444 -19q-156 0 -260 105t-104 262q0 158 104 263t260 105q98 0 178.5 -44.5t128.5 -122.5v146q0 5 5 5h436q5 0 5 -5v-1q0 -5 -5 -5h-386v-279h306q5 0 5 -5v-1q0 -5 -5 -5h-306v-388h406q5 0 5 -5v-1q0 -5 -5 -5h-456q-5 0 -5 5v142q-48 -77 -128.5 -121.5 t-178.5 -44.5zM139 348q0 -148 87 -249t218 -103q134 -2 220.5 99t82.5 253q-4 151 -91 251.5t-212 101.5q-131 2 -218 -99t-87 -254z" glyph-name="OE" horiz-adv-x="1297" unicode="Œ"/><glyph d="M366 -13q-124 0 -205 74.5t-81 186.5t81 186.5t205 74.5q86 0 153.5 -38t101.5 -103q33 68 98.5 108.5t148.5 40.5q112 0 188 -72.5t78 -181.5q0 -5 -5 -5h-477v-10q-2 -101 61.5 -168.5t160.5 -67.5q74 0 139.5 36t89.5 91q3 4 6 4h9q6 0 4 -6q-30 -67 -100.5 -111 t-147.5 -44q-84 0 -151.5 39.5t-101.5 107.5q-33 -65 -100.5 -103.5t-154.5 -38.5zM138 248q0 -103 64.5 -172.5t163.5 -70.5q102 -1 165.5 68t60.5 175q-3 104 -67 173.5t-159 70.5q-99 1 -163.5 -68.5t-64.5 -175.5zM654 276h420q-5 95 -63 157t-143 63q-82 1 -142.5 -61 t-71.5 -159z" glyph-name="oe" horiz-adv-x="1214" unicode="œ"/><glyph d="M85 0q-5 0 -5 5v690q0 5 5 5h234q132 0 205 -52t73 -145t-68.5 -146.5t-193.5 -57.5q47 -33 119 -123.5t105 -119.5q43 -37 111 -46q4 0 4 -5t-5 -5q-68 0 -124 31q-40 22 -76.5 57.5t-78 86.5t-61.5 72q-1 1 -7 8t-8.5 9t-9.5 8t-12.5 8.5t-15 7t-19 6.5t-22.5 3.5 t-28 1.5h-72v-294q0 -5 -5 -5h-45zM135 310h185q103 0 161.5 51t61.5 142q1 88 -59 137t-169 50l-180 1v-381zM238 742q-4 0 1 6l113 124q2 3 6 3h29q8 0 2 -6l-144 -125q-4 -2 -7 -2z" glyph-name="Racute" horiz-adv-x="754" unicode="Ŕ"/><glyph d="M70 497q0 5 5 5q27 -1 38.5 -5t11.5 -18v-113q52 166 265 142q8 0 6 -7l-10 -28q-2 -3 -5 -3q-71 10 -122.5 -1.5t-79.5 -42t-41 -69t-13 -87.5v-265q0 -5 -5 -5h-45q-5 0 -5 5v492zM184 545q-4 0 1 6l113 124q2 3 6 3h29q8 0 2 -6l-144 -125q-4 -2 -7 -2z" glyph-name="racute" horiz-adv-x="446" unicode="ŕ"/><glyph d="M85 0q-5 0 -5 5v690q0 5 5 5h234q132 0 205 -52t73 -145t-68.5 -146.5t-193.5 -57.5q47 -33 119 -123.5t105 -119.5q43 -37 111 -46q4 0 4 -5t-5 -5q-68 0 -124 31q-40 22 -76.5 57.5t-78 86.5t-61.5 72q-1 1 -7 8t-8.5 9t-9.5 8t-12.5 8.5t-15 7t-19 6.5t-22.5 3.5 t-28 1.5h-72v-294q0 -5 -5 -5h-45zM135 310h185q103 0 161.5 51t61.5 142q1 88 -59 137t-169 50l-180 1v-381zM283 -171q-6 4 1 8q11 10 14.5 22.5t2 21t-5.5 22t-5 19.5q-2 5 4 5l43 1q5 0 5 -4q2 -38 -10.5 -61t-48.5 -34z" glyph-name="uni0156" horiz-adv-x="754" unicode="Ŗ"/><glyph d="M70 497q0 5 5 5q27 -1 38.5 -5t11.5 -18v-113q52 166 265 142q8 0 6 -7l-10 -28q-2 -3 -5 -3q-71 10 -122.5 -1.5t-79.5 -42t-41 -69t-13 -87.5v-265q0 -5 -5 -5h-45q-5 0 -5 5v492zM176 -171q-6 4 1 8q11 10 14.5 22.5t2 21t-5.5 22t-5 19.5q-2 5 4 5l43 1q5 0 5 -4 q2 -38 -10.5 -61t-48.5 -34z" glyph-name="uni0157" horiz-adv-x="446" unicode="ŗ"/><glyph d="M85 0q-5 0 -5 5v690q0 5 5 5h234q132 0 205 -52t73 -145t-68.5 -146.5t-193.5 -57.5q47 -33 119 -123.5t105 -119.5q43 -37 111 -46q4 0 4 -5t-5 -5q-68 0 -124 31q-40 22 -76.5 57.5t-78 86.5t-61.5 72q-1 1 -7 8t-8.5 9t-9.5 8t-12.5 8.5t-15 7t-19 6.5t-22.5 3.5 t-28 1.5h-72v-294q0 -5 -5 -5h-45zM135 310h185q103 0 161.5 51t61.5 142q1 88 -59 137t-169 50l-180 1v-381zM176 852q0 5 6 1l114 -65q5 -2 10 0l114 65q6 4 6 -1q0 -4 -3 -6l-119 -98q-4 -4 -8 0l-117 98q-3 2 -3 6z" glyph-name="Rcaron" horiz-adv-x="754" unicode="Ř"/><glyph d="M70 497q0 5 5 5q27 -1 38.5 -5t11.5 -18v-113q52 166 265 142q8 0 6 -7l-10 -28q-2 -3 -5 -3q-71 10 -122.5 -1.5t-79.5 -42t-41 -69t-13 -87.5v-265q0 -5 -5 -5h-45q-5 0 -5 5v492zM122 670q0 5 6 1l114 -65q5 -2 10 0l114 65q6 4 6 -1q0 -4 -3 -6l-119 -98q-4 -4 -8 0 l-117 98q-3 2 -3 6z" glyph-name="rcaron" horiz-adv-x="446" unicode="ř"/><glyph d="M354 -11q-79 0 -151 30t-121 82q-4 5 1 7l27 12q1 1 4 0.5t4 -1.5q43 -54 106 -84.5t130 -30.5q97 0 160 36t68 96q6 65 -43.5 108t-183.5 78q-157 40 -216.5 87.5t-51.5 125.5q6 77 81.5 128.5t181.5 50.5q161 -3 254 -115q5 -5 -2 -7l-25 -8q-6 -2 -9 1 q-89 114 -218 114q-95 0 -155 -41t-63 -109q-3 -55 50.5 -95t192.5 -75q147 -37 203 -84.5t48 -130.5q-7 -75 -85 -125t-187 -50zM264 740q-4 0 1 6l113 124q2 3 6 3h29q8 0 2 -6l-144 -125q-4 -2 -7 -2z" glyph-name="Sacute" horiz-adv-x="706" unicode="Ś"/><glyph d="M304 -13q-76 0 -136 26.5t-93 68.5q-3 3 2 6l26 15q5 2 7 -1q65 -95 194 -95q75 0 125 27.5t54 71.5q4 50 -37 74.5t-157 46.5q-122 23 -168.5 60.5t-38.5 103.5q5 51 62 85t148 34q66 0 118.5 -26t82.5 -67q3 -5 -2 -7l-24 -10q-1 -1 -3.5 -0.5t-3.5 1.5q-59 91 -168 91 q-68 0 -113.5 -26.5t-51.5 -62.5q-8 -46 29.5 -72t138.5 -44q124 -21 182.5 -60.5t49.5 -107.5q-8 -61 -70.5 -96.5t-152.5 -35.5zM203 540q-3 0 1 6l113 124q1 3 6 3h29q8 0 2 -6l-144 -125q-4 -2 -7 -2z" glyph-name="sacute" horiz-adv-x="574" unicode="ś"/><glyph d="M354 -11q-22 0 -33 1l-11 -29q41 -2 71.5 -26t30.5 -60q0 -33 -31.5 -53.5t-86.5 -20.5v4q39 0 61 19t22 52t-25.5 53t-57.5 20l7 44q-134 17 -219 108q-4 5 1 7l27 12q1 1 4 0.5t4 -1.5q43 -54 106 -84.5t130 -30.5q97 0 160 36t68 96q6 65 -43.5 108t-183.5 78 q-157 40 -216.5 87.5t-51.5 125.5q6 77 81.5 128.5t181.5 50.5q161 -3 254 -115q5 -5 -2 -7l-25 -8q-6 -2 -9 1q-89 114 -218 114q-95 0 -155 -41t-63 -109q-3 -55 50.5 -95t192.5 -75q147 -37 203 -84.5t48 -130.5q-7 -75 -85 -125t-187 -50z" glyph-name="Scedilla" horiz-adv-x="706" unicode="Ş"/><glyph d="M304 -13h-6l-10 -26q41 -2 71.5 -26t30.5 -60q0 -33 -31.5 -53.5t-86.5 -20.5v4q39 0 61 19t22 52t-25.5 53t-57.5 20l6 39q-135 9 -203 94q-3 3 2 6l26 15q5 2 7 -1q65 -95 194 -95q75 0 125 27.5t54 71.5q4 50 -37 74.5t-157 46.5q-122 23 -168.5 60.5t-38.5 103.5 q5 51 62 85t148 34q66 0 118.5 -26t82.5 -67q3 -5 -2 -7l-24 -10q-1 -1 -3.5 -0.5t-3.5 1.5q-59 91 -168 91q-68 0 -113.5 -26.5t-51.5 -62.5q-8 -46 29.5 -72t138.5 -44q124 -21 182.5 -60.5t49.5 -107.5q-8 -61 -70.5 -96.5t-152.5 -35.5z" glyph-name="scedilla" horiz-adv-x="574" unicode="ş"/><glyph d="M354 -11q-79 0 -151 30t-121 82q-4 5 1 7l27 12q1 1 4 0.5t4 -1.5q43 -54 106 -84.5t130 -30.5q97 0 160 36t68 96q6 65 -43.5 108t-183.5 78q-157 40 -216.5 87.5t-51.5 125.5q6 77 81.5 128.5t181.5 50.5q161 -3 254 -115q5 -5 -2 -7l-25 -8q-6 -2 -9 1 q-89 114 -218 114q-95 0 -155 -41t-63 -109q-3 -55 50.5 -95t192.5 -75q147 -37 203 -84.5t48 -130.5q-7 -75 -85 -125t-187 -50zM194 855q0 5 6 1l114 -65q5 -2 10 0l114 65q6 4 6 -1t-3 -6l-119 -98q-4 -4 -8 0l-117 98q-3 1 -3 6z" glyph-name="Scaron" horiz-adv-x="706" unicode="Š"/><glyph d="M304 -13q-76 0 -136 26.5t-93 68.5q-3 3 2 6l26 15q5 2 7 -1q65 -95 194 -95q75 0 125 27.5t54 71.5q4 50 -37 74.5t-157 46.5q-122 23 -168.5 60.5t-38.5 103.5q5 51 62 85t148 34q66 0 118.5 -26t82.5 -67q3 -5 -2 -7l-24 -10q-1 -1 -3.5 -0.5t-3.5 1.5q-59 91 -168 91 q-68 0 -113.5 -26.5t-51.5 -62.5q-8 -46 29.5 -72t138.5 -44q124 -21 182.5 -60.5t49.5 -107.5q-8 -61 -70.5 -96.5t-152.5 -35.5zM167 662q0 5 6 1l114 -65q5 -2 10 0l114 65q6 4 6 -1q0 -4 -3 -6l-119 -98q-4 -4 -8 0l-117 98q-3 2 -3 6z" glyph-name="scaron" horiz-adv-x="574" unicode="š"/><glyph d="M671 700q5 0 5 -5v-1q0 -5 -5 -5h-259v-684q0 -5 -5 -5h-17l-15 -39q41 -2 71.5 -26t30.5 -60q0 -33 -31.5 -53.5t-86.5 -20.5v4q39 0 61 19t22 52t-25.5 53t-57.5 20l8 51h-6q-5 0 -5 5v684h-271q-5 0 -5 5v1q0 5 5 5h586z" glyph-name="uni0162" horiz-adv-x="756" unicode="Ţ"/><glyph d="M70 493q0 5 5 5h188v182q0 5 5 5h45q5 0 5 -5v-182h132q5 0 5 -5v-1q0 -5 -5 -5h-132v-482q0 -2 -2 -4l-15 -39q41 -2 71.5 -26t30.5 -60q0 -33 -31.5 -53.5t-86.5 -20.5v4q39 0 61 19t22 52t-25.5 53t-57.5 20l9 51q-31 3 -31 22v464h-188q-5 0 -5 5v1z" glyph-name="uni0163" horiz-adv-x="475" unicode="ţ"/><glyph d="M671 700q5 0 5 -5v-1q0 -5 -5 -5h-259v-684q0 -5 -5 -5h-46q-5 0 -5 5v684h-271q-5 0 -5 5v1q0 5 5 5h586zM265 856q0 5 6 1l114 -65q5 -2 10 0l114 65q6 4 6 -1q0 -4 -3 -6l-119 -98q-4 -4 -8 0l-117 98q-3 2 -3 6z" glyph-name="Tcaron" horiz-adv-x="756" unicode="Ť"/><glyph d="M70 493q0 5 5 5h188v182q0 5 5 5h45q5 0 5 -5v-182h132q5 0 5 -5v-1q0 -5 -5 -5h-132v-482q0 -5 -5 -5q-27 1 -38.5 5t-11.5 18v464h-188q-5 0 -5 5v1zM166 827q0 5 6 1l114 -65q5 -2 10 0l114 65q6 4 6 -1t-3 -6l-119 -98q-4 -4 -8 0l-117 98q-3 1 -3 6z" glyph-name="tcaron" horiz-adv-x="475" unicode="ť"/><glyph d="M367 -6q-126 0 -206.5 71t-80.5 179v451q0 5 5 5h46q5 0 5 -5v-439q0 -105 64.5 -174.5t166.5 -69.5q111 0 181 73.5t70 184.5v425q0 5 5 5h4q5 0 5 -5v-425v-2q-1 -119 -75 -196.5t-190 -77.5zM238 774q-4 4 0 8q30 26 56 33.5t43 0t35 -19t33.5 -22.5t38 -9.5 t48.5 19.5q5 3 7 -1t-2 -9q-27 -27 -52 -35.5t-43.5 -1.5t-38 17.5t-36.5 22t-38.5 11.5t-43.5 -14q-4 -3 -7 0z" glyph-name="Utilde" horiz-adv-x="712" unicode="Ũ"/><glyph d="M582 5q0 -5 -5 -5q-27 1 -38.5 5t-11.5 18v117q-25 -71 -81.5 -112.5t-128.5 -41.5q-113 0 -180 74t-67 197v240q0 5 5 5q27 -1 38.5 -5t11.5 -18v-222q0 -112 53 -180.5t139 -68.5q89 0 149.5 71.5t60.5 158.5v259q0 5 5 5h45q5 0 5 -5v-492zM206 584q29 28 54.5 36.5 t43 1t36 -18t34.5 -21t38.5 -8.5t47.5 21q5 3 7 0q2 -4 -2 -9q-26 -28 -50.5 -37.5t-43 -3t-39 16.5t-37.5 20t-38.5 10t-42.5 -15q-4 -3 -7 -1q-5 4 -1 8z" glyph-name="utilde" horiz-adv-x="632" unicode="ũ"/><glyph d="M367 -6q-126 0 -206.5 71t-80.5 179v451q0 5 5 5h46q5 0 5 -5v-439q0 -105 64.5 -174.5t166.5 -69.5q111 0 181 73.5t70 184.5v425q0 5 5 5h4q5 0 5 -5v-425v-2q-1 -119 -75 -196.5t-190 -77.5zM281 783v10q0 5 5 5h150q5 0 5 -5v-10q0 -5 -5 -5h-150q-5 0 -5 5z" glyph-name="Umacron" horiz-adv-x="712" unicode="Ū"/><glyph d="M582 5q0 -5 -5 -5q-27 1 -38.5 5t-11.5 18v117q-25 -71 -81.5 -112.5t-128.5 -41.5q-113 0 -180 74t-67 197v240q0 5 5 5q27 -1 38.5 -5t11.5 -18v-222q0 -112 53 -180.5t139 -68.5q89 0 149.5 71.5t60.5 158.5v259q0 5 5 5h45q5 0 5 -5v-492zM244 591v10q0 5 5 5h150 q5 0 5 -5v-10q0 -5 -5 -5h-150q-5 0 -5 5z" glyph-name="umacron" horiz-adv-x="632" unicode="ū"/><glyph d="M367 -6q-126 0 -206.5 71t-80.5 179v451q0 5 5 5h46q5 0 5 -5v-439q0 -105 64.5 -174.5t166.5 -69.5q111 0 181 73.5t70 184.5v425q0 5 5 5h4q5 0 5 -5v-425v-2q-1 -119 -75 -196.5t-190 -77.5zM295 807q0 31 22 51.5t56 20.5t57 -20.5t23 -51.5t-23 -51.5t-57 -20.5 t-56 20.5t-22 51.5zM333 808q-1 -26 11 -43.5t30 -17.5q17 -1 28.5 16.5t12.5 43.5q0 25 -12 42.5t-30 18.5q-17 1 -28.5 -16.5t-11.5 -43.5z" glyph-name="Uring" horiz-adv-x="712" unicode="Ů"/><glyph d="M582 5q0 -5 -5 -5q-27 1 -38.5 5t-11.5 18v117q-25 -71 -81.5 -112.5t-128.5 -41.5q-113 0 -180 74t-67 197v240q0 5 5 5q27 -1 38.5 -5t11.5 -18v-222q0 -112 53 -180.5t139 -68.5q89 0 149.5 71.5t60.5 158.5v259q0 5 5 5h45q5 0 5 -5v-492zM248 628q0 31 22 51.5 t56 20.5t57 -20.5t23 -51.5t-23 -51.5t-57 -20.5t-56 20.5t-22 51.5zM286 629q-1 -26 11 -43.5t30 -17.5q17 -1 28.5 16.5t12.5 43.5q0 25 -12 42.5t-30 18.5q-17 1 -28.5 -16.5t-11.5 -43.5z" glyph-name="uring" horiz-adv-x="632" unicode="ů"/><glyph d="M367 -6q-126 0 -206.5 71t-80.5 179v451q0 5 5 5h46q5 0 5 -5v-439q0 -105 64.5 -174.5t166.5 -69.5q111 0 181 73.5t70 184.5v425q0 5 5 5h4q5 0 5 -5v-425v-2q-1 -119 -75 -196.5t-190 -77.5zM273 755q-3 0 1 6l113 124q1 3 6 3h29q8 0 2 -6l-144 -125q-4 -2 -7 -2z M345 755q-3 0 1 6l113 124q1 3 6 3h29q8 0 2 -6l-144 -125q-4 -2 -7 -2z" glyph-name="Uhungarumlaut" horiz-adv-x="712" unicode="Ű"/><glyph d="M582 5q0 -5 -5 -5q-27 1 -38.5 5t-11.5 18v117q-25 -71 -81.5 -112.5t-128.5 -41.5q-113 0 -180 74t-67 197v240q0 5 5 5q27 -1 38.5 -5t11.5 -18v-222q0 -112 53 -180.5t139 -68.5q89 0 149.5 71.5t60.5 158.5v259q0 5 5 5h45q5 0 5 -5v-492zM233 548q-3 0 1 6l113 124 q1 3 6 3h29q8 0 2 -6l-144 -125q-4 -2 -7 -2zM305 548q-3 0 1 6l113 124q1 3 6 3h29q8 0 2 -6l-144 -125q-4 -2 -7 -2z" glyph-name="uhungarumlaut" horiz-adv-x="632" unicode="ű"/><glyph d="M618 695q0 5 5 5h4q5 0 5 -5v-425v-2q-1 -114 -69.5 -190.5t-177.5 -83.5q-28 -11 -51 -35t-23 -44q0 -32 20.5 -51t57.5 -20q5 0 5 -2t-5 -2q-53 1 -83 21t-30 53q0 29 18 50.5t46 30.5q-116 8 -188 77.5t-72 171.5v451q0 5 5 5h46q5 0 5 -5v-439q0 -105 64.5 -174.5 t166.5 -69.5q111 0 181 73.5t70 184.5v425z" glyph-name="Uogonek" horiz-adv-x="712" unicode="Ų"/><glyph d="M582 5q0 -2 -1 -3h3h-3q-2 -2 -4 -2h-7q-29 -7 -57 -34t-28 -49q0 -32 20.5 -51t57.5 -20q5 0 5 -2t-5 -2q-53 1 -83 21t-30 53q0 37 29 61.5t65 24.5h6q-23 3 -23 21v117q-25 -71 -81.5 -112.5t-128.5 -41.5q-113 0 -180 74t-67 197v240q0 5 5 5q27 -1 38.5 -5t11.5 -18 v-222q0 -112 53 -180.5t139 -68.5q89 0 149.5 71.5t60.5 158.5v259q0 5 5 5h45q5 0 5 -5v-492z" glyph-name="uogonek" horiz-adv-x="632" unicode="ų"/><glyph d="M816 0q-3 0 -5 4l-184 475l-208 -475q-2 -4 -5 -4h-35q-3 0 -5 4l-293 690q-3 6 4 6h55q3 0 5 -4l277 -643l196 450l-74 191q-2 6 6 6h52q3 0 5 -4l244 -641l265 641q2 4 3 4h16q4 0 1 -6l-289 -690l-2 -4h-29zM476 746q0 4 3 6l119 98q4 4 8 0l117 -98q3 -2 3 -6 q0 -5 -6 -1l-111 63l-6 3q-5 0 -7 -1l-114 -65q-6 -4 -6 1z" glyph-name="Wcircumflex" horiz-adv-x="1212" unicode="Ŵ"/><glyph d="M666 0q-3 0 -5 4l-177 397l-173 -397q-2 -4 -5 -4h-35q-3 0 -5 4l-195 490q-3 6 4 6h48q3 0 5 -4l182 -445l162 375l-30 68q-3 6 4 6h47q3 0 5 -4l200 -443l177 443q2 4 5 4h14q7 0 4 -6l-198 -490q-2 -4 -5 -4h-29zM354 560q0 4 3 6l119 98q4 4 8 0l117 -98q3 -2 3 -6 q0 -5 -6 -1l-111 63l-6 3q-5 0 -7 -1l-114 -65q-6 -4 -6 1z" glyph-name="wcircumflex" horiz-adv-x="969" unicode="ŵ"/><glyph d="M84 694q-4 6 3 6h56q5 0 6 -3l237 -330l239 330q1 3 6 3h14q8 0 4 -6l-256 -350v-339q0 -5 -5 -5h-45q-5 0 -5 5v333zM246 754q0 4 3 6l119 98q4 4 8 0l117 -98q3 -2 3 -6q0 -5 -6 -1l-111 63l-6 3q-5 0 -7 -1l-114 -65q-6 -4 -6 1z" glyph-name="Ycircumflex" horiz-adv-x="733" unicode="Ŷ"/><glyph d="M319 -233q-95 0 -172 80q-3 3 0 6l12 10q3 3 6 -1q68 -71 154 -71q97 0 152 59t55 172v115q-25 -69 -81.5 -109.5t-127.5 -40.5q-113 0 -180 73.5t-67 196.5v240q0 5 6 5h-1q27 -1 38.5 -5t11.5 -18v-222q0 -111 53 -179.5t139 -68.5q91 0 150 73.5t59 157.5v255q0 5 5 5 h45q5 0 5 -5v-472q0 -122 -72.5 -189t-189.5 -67zM75 502zM198 567q0 5 3 6l119 98q4 4 8 0l117 -98q3 -1 3 -6t-6 -1l-111 63l-6 3q-5 0 -7 -1l-114 -65q-6 -4 -6 1z" glyph-name="ycircumflex" horiz-adv-x="661" unicode="ŷ"/><glyph d="M84 694q-4 6 3 6h56q5 0 6 -3l237 -330l239 330q1 3 6 3h14q8 0 4 -6l-256 -350v-339q0 -5 -5 -5h-45q-5 0 -5 5v333zM262 788q0 14 10.5 23.5t25.5 9.5q16 0 26.5 -9.5t10.5 -23.5q0 -13 -10.5 -22.5t-26.5 -9.5q-15 0 -25.5 9.5t-10.5 22.5zM413 788q0 14 10.5 23.5 t25.5 9.5q16 0 26.5 -9.5t10.5 -23.5q0 -13 -10.5 -22.5t-26.5 -9.5q-15 0 -25.5 9.5t-10.5 22.5z" glyph-name="Ydieresis" horiz-adv-x="733" unicode="Ÿ"/><glyph d="M85 0q-8 0 -4 6l465 683h-435q-5 0 -5 5v1q0 5 5 5h501q8 0 4 -6l-470 -683h435q5 0 5 -5v-1q0 -5 -5 -5h-496zM309 747q-3 0 1 6l113 124q1 3 6 3h29q8 0 2 -6l-144 -125q-4 -2 -7 -2z" glyph-name="Zacute" horiz-adv-x="697" unicode="Ź"/><glyph d="M74 0q-7 0 -3 6l377 483h-344q-5 0 -5 5v1q0 5 5 5h411q7 0 3 -6l-383 -483h365q5 0 5 -5v-1q0 -5 -5 -5h-426zM243 567q-3 0 1 6l113 124q1 3 6 3h29q8 0 2 -6l-144 -125q-4 -2 -7 -2z" glyph-name="zacute" horiz-adv-x="589" unicode="ź"/><glyph d="M85 0q-8 0 -4 6l465 683h-435q-5 0 -5 5v1q0 5 5 5h501q8 0 4 -6l-470 -683h435q5 0 5 -5v-1q0 -5 -5 -5h-496zM333 789q0 14 10.5 23.5t25.5 9.5q16 0 26.5 -9.5t10.5 -23.5q0 -13 -10.5 -22.5t-26.5 -9.5q-15 0 -25.5 9.5t-10.5 22.5z" glyph-name="Zdotaccent" horiz-adv-x="697" unicode="Ż"/><glyph d="M74 0q-7 0 -3 6l377 483h-344q-5 0 -5 5v1q0 5 5 5h411q7 0 3 -6l-383 -483h365q5 0 5 -5v-1q0 -5 -5 -5h-426zM276 605q0 14 10.5 23.5t25.5 9.5q16 0 26.5 -9.5t10.5 -23.5q0 -13 -10.5 -22.5t-26.5 -9.5q-15 0 -25.5 9.5t-10.5 22.5z" glyph-name="zdotaccent" horiz-adv-x="589" unicode="ż"/><glyph d="M85 0q-8 0 -4 6l465 683h-435q-5 0 -5 5v1q0 5 5 5h501q8 0 4 -6l-470 -683h435q5 0 5 -5v-1q0 -5 -5 -5h-496zM239 858q0 5 6 1l114 -65q5 -2 10 0l114 65q6 4 6 -1q0 -4 -3 -6l-119 -98q-4 -4 -8 0l-117 98q-3 2 -3 6z" glyph-name="Zcaron" horiz-adv-x="697" unicode="Ž"/><glyph d="M74 0q-7 0 -3 6l377 483h-344q-5 0 -5 5v1q0 5 5 5h411q7 0 3 -6l-383 -483h365q5 0 5 -5v-1q0 -5 -5 -5h-426zM179 671q0 5 6 1l114 -65q5 -2 10 0l114 65q6 4 6 -1t-3 -6l-119 -98q-4 -4 -8 0l-117 98q-3 1 -3 6z" glyph-name="zcaron" horiz-adv-x="589" unicode="ž"/><glyph d="M354 -11q-79 0 -151 30t-121 82q-4 5 1 7l27 12q1 1 4 0.5t4 -1.5q43 -54 106 -84.5t130 -30.5q97 0 160 36t68 96q6 65 -43.5 108t-183.5 78q-157 40 -216.5 87.5t-51.5 125.5q6 77 81.5 128.5t181.5 50.5q161 -3 254 -115q5 -5 -2 -7l-25 -8q-6 -2 -9 1 q-89 114 -218 114q-95 0 -155 -41t-63 -109q-3 -55 50.5 -95t192.5 -75q147 -37 203 -84.5t48 -130.5q-7 -75 -85 -125t-187 -50zM303 -171q-6 4 1 8q11 10 14.5 22.5t2 21t-5.5 22t-5 19.5q-2 5 4 5l43 1q5 0 5 -4q2 -38 -10.5 -61t-48.5 -34z" glyph-name="uni0218" horiz-adv-x="706" unicode="Ș"/><glyph d="M304 -13q-76 0 -136 26.5t-93 68.5q-3 3 2 6l26 15q5 2 7 -1q65 -95 194 -95q75 0 125 27.5t54 71.5q4 50 -37 74.5t-157 46.5q-122 23 -168.5 60.5t-38.5 103.5q5 51 62 85t148 34q66 0 118.5 -26t82.5 -67q3 -5 -2 -7l-24 -10q-1 -1 -3.5 -0.5t-3.5 1.5q-59 91 -168 91 q-68 0 -113.5 -26.5t-51.5 -62.5q-8 -46 29.5 -72t138.5 -44q124 -21 182.5 -60.5t49.5 -107.5q-8 -61 -70.5 -96.5t-152.5 -35.5zM267 -171q-6 4 1 8q11 10 14.5 22.5t2 21t-5.5 22t-5 19.5q-2 5 4 5l43 1q5 0 5 -4q2 -38 -10.5 -61t-48.5 -34z" glyph-name="uni0219" horiz-adv-x="574" unicode="ș"/><glyph d="M671 700q5 0 5 -5v-1q0 -5 -5 -5h-259v-684q0 -5 -5 -5h-46q-5 0 -5 5v684h-271q-5 0 -5 5v1q0 5 5 5h586zM357 -171q-6 4 1 8q11 10 14.5 22.5t2 21t-5.5 22t-5 19.5q-2 5 4 5l43 1q5 0 5 -4q2 -38 -10.5 -61t-48.5 -34z" glyph-name="uni021A" horiz-adv-x="756" unicode="Ț"/><glyph d="M70 493q0 5 5 5h188v182q0 5 5 5h45q5 0 5 -5v-182h132q5 0 5 -5v-1q0 -5 -5 -5h-132v-482q0 -5 -5 -5q-27 1 -38.5 5t-11.5 18v464h-188q-5 0 -5 5v1zM257 -171q-6 4 1 8q11 10 14.5 22.5t2 21t-5.5 22t-5 19.5q-2 5 4 5l43 1q5 0 5 -4q2 -38 -10.5 -61t-48.5 -34z" glyph-name="uni021B" horiz-adv-x="475" unicode="ț"/><glyph d="M85 -259q-5 0 -5 5t5 5q122 11 122 158v568q0 14 11.5 18t38.5 5q5 0 5 -5v-550q0 -91 -47.5 -145t-129.5 -59z" glyph-name="uni0237" horiz-adv-x="342" unicode="ȷ"/><glyph d="M56 591q-6 -4 -6 1q0 4 3 6l119 98q4 4 8 0l117 -98q3 -2 3 -6q0 -5 -6 -1l-114 65q-5 2 -10 0z" glyph-name="circumflex" horiz-adv-x="350" unicode="ˆ"/><glyph d="M178 591q-4 -4 -8 0l-117 98q-3 1 -3 6t6 1l114 -65q5 -2 10 0l114 65q6 4 6 -1t-3 -6z" glyph-name="caron" horiz-adv-x="350" unicode="ˇ"/><glyph d="M53 659q-3 4 -1 6t6 -1q44 -38 120 -38t121 38q3 4 6 1q2 -2 -1 -6q-46 -67 -126 -67t-125 67z" glyph-name="breve" horiz-adv-x="357" unicode="˘"/><glyph d="M106 745q-15 0 -25.5 9.5t-10.5 22.5q0 14 10.5 23.5t25.5 9.5q16 0 26.5 -9.5t10.5 -23.5q0 -13 -10.5 -22.5t-26.5 -9.5z" glyph-name="dotaccent" horiz-adv-x="173" unicode="˙"/><glyph d="M128 576q-34 0 -56 20.5t-22 51.5t22 51.5t56 20.5t57 -20.5t23 -51.5t-23 -51.5t-57 -20.5zM88 649q-1 -26 11 -43.5t30 -17.5q17 -1 28.5 16.5t12.5 43.5q0 25 -12 42.5t-30 18.5q-17 1 -28.5 -16.5t-11.5 -43.5z" glyph-name="ring" horiz-adv-x="258" unicode="˚"/><glyph d="M168 -158q0 -2 -5 -2q-53 1 -83 21t-30 53q0 37 29 61.5t65 24.5h40q-30 0 -64.5 -29.5t-34.5 -55.5q0 -32 20.5 -51t57.5 -20q5 0 5 -2z" glyph-name="ogonek" horiz-adv-x="234" unicode="˛"/><glyph d="M61 642q-4 -3 -7 0q-4 4 0 8q30 26 56 33.5t43 0t35 -19t33.5 -22.5t38 -9.5t48.5 19.5q5 3 7 -1t-2 -9q-27 -27 -52 -35.5t-43.5 -1.5t-38 17.5t-36.5 22t-38.5 11.5t-43.5 -14z" glyph-name="tilde" horiz-adv-x="367" unicode="˜"/><glyph d="M127 567q-3 0 1 6l113 124q1 3 6 3h29q8 0 2 -6l-144 -125q-4 -2 -7 -2zM55 567q-4 0 1 6l113 124q1 3 6 3h29q8 0 2 -6l-144 -125q-4 -2 -7 -2z" glyph-name="hungarumlaut" horiz-adv-x="335" unicode="˝"/><glyph d="M208 567q-3 0 -7 2l-144 125q-6 6 2 6h29q4 0 6 -3l113 -124q5 -6 1 -6z" glyph-name="gravecomb" unicode="̀"/><glyph d="M55 567q-4 0 1 6l113 124q1 3 6 3h29q8 0 2 -6l-144 -125q-4 -2 -7 -2z" glyph-name="acutecomb" unicode="́"/><glyph d="M56 591q-6 -4 -6 1q0 4 3 6l119 98q4 4 8 0l117 -98q3 -2 3 -6q0 -5 -6 -1l-111 63l-6 3q-5 0 -7 -1z" glyph-name="uni0302" unicode="̂"/><glyph d="M50 646q32 29 58.5 37.5t44 0.5t36 -20t34.5 -23t39.5 -8.5t50.5 22.5l4 -8q-28 -30 -54 -39.5t-45 -3t-39 18t-37 22.5t-39.5 11t-45.5 -17z" glyph-name="tildecomb" unicode="̃"/><glyph d="M55 615q-5 0 -5 5v10q0 5 5 5h150q5 0 5 -5v-10q0 -5 -5 -5h-150z" glyph-name="uni0304" unicode="̄"/><glyph d="M54 664q48 -41 127.5 -42t120.5 39l5 -3q-43 -70 -125.5 -70t-131.5 70z" glyph-name="uni0306" unicode="̆"/><glyph d="M86 594q-15 0 -25.5 9.5t-10.5 22.5q0 14 10.5 23.5t25.5 9.5q16 0 26.5 -9.5t10.5 -23.5q0 -13 -10.5 -22.5t-26.5 -9.5z" glyph-name="uni0307" unicode="̇"/><glyph d="M237 594q-15 0 -25.5 9.5t-10.5 22.5q0 14 10.5 23.5t25.5 9.5q16 0 26.5 -9.5t10.5 -23.5q0 -13 -10.5 -22.5t-26.5 -9.5zM50 626q0 14 10.5 23.5t25.5 9.5q16 0 26.5 -9.5t10.5 -23.5q0 -13 -10.5 -22.5t-26.5 -9.5q-15 0 -25.5 9.5t-10.5 22.5z" glyph-name="uni0308" unicode="̈"/><glyph d="M129 576q-34 0 -56.5 20.5t-22.5 51.5t22.5 51.5t56.5 20.5t56.5 -20.5t22.5 -51.5t-22.5 -51.5t-56.5 -20.5zM88 650q-3 -61 41 -61q38 0 41 58q2 62 -41 62q-39 0 -41 -59z" glyph-name="uni030A" unicode="̊"/><glyph d="M151 567l121 133h42l-154 -133h-9zM50 567l121 133h42l-154 -133h-9z" glyph-name="uni030B" unicode="̋"/><glyph d="M176 588l-126 103v8l120 -68q5 -2 10 0l120 68v-8z" glyph-name="uni030C" unicode="̌"/><glyph d="M51 584q-2 40 10 63.5t49 35.5q6 -4 -1 -8q-15 -14 -16.5 -29t5 -34.5t6.5 -26.5z" glyph-name="uni0312" unicode="̒"/><glyph d="M53 -171q-6 4 1 8q11 10 14.5 22.5t2 21t-5.5 22t-5 19.5q-2 5 4 5l43 1q5 0 5 -4q2 -38 -10.5 -61t-48.5 -34z" glyph-name="uni0326" unicode="̦"/><glyph d="M50 -195q39 0 61 19t22 52t-25.5 53t-57.5 20l8 51h23l-15 -39q41 -2 71.5 -26t30.5 -60q0 -33 -31.5 -53.5t-86.5 -20.5v4z" glyph-name="uni0327" unicode="̧"/><glyph d="M168 -160q-55 0 -86.5 20.5t-31.5 53.5q0 37 29 61.5t65 24.5h40q-30 0 -64.5 -29.5t-34.5 -55.5q0 -33 22 -52t61 -19v-4z" glyph-name="uni0328" unicode="̨"/><glyph d="M50 373v10h260v-10h-260z" glyph-name="uni0335" unicode="̵"/><glyph d="M50 373v10h660v-10h-660z" glyph-name="uni0336" unicode="̶"/><glyph d="M96 94l358 500h14l-359 -500h-13z" glyph-name="uni0337" unicode="̷"/><glyph d="M50 0l558 700h14l-559 -700h-13z" glyph-name="uni0338" unicode="̸"/><glyph d="M441 -14q-154 0 -257.5 107t-103.5 266q0 152 101 254t252 102q89 0 161 -39t113 -109q3 -6 -4 -6h-32q-5 0 -6 3q-41 63 -102.5 98t-129.5 35q-127 0 -212 -98.5t-85 -239.5q0 -149 87.5 -252.5t217.5 -103.5q73 0 134 39.5t96 105.5v166h-164q-5 0 -5 5v2q0 5 5 5h214 q5 0 5 -5v-173q-37 -75 -112.5 -118.5t-172.5 -43.5zM356 770v10q0 5 5 5h150q5 0 5 -5v-10q0 -5 -5 -5h-150q-5 0 -5 5z" glyph-name="uni1E20" horiz-adv-x="807" unicode="Ḡ"/><glyph d="M354 -235q-112 0 -175 82q-6 6 0 6h1q3 0 7 -2q40 -35 78 -46t89 -11q87 0 139.5 59.5t52.5 168.5v91q-25 -56 -81 -89.5t-128 -33.5q-111 0 -186.5 71.5t-80.5 178.5v6v6q4 116 79.5 185.5t187.5 69.5q68 0 128 -33.5t81 -68.5v72q0 14 11.5 18t38.5 5q5 0 5 -5v-473 q0 -122 -66.5 -189.5t-180.5 -67.5zM125 246q2 -105 63 -166t149 -61q84 0 142.5 44t66.5 112v201q-67 102 -209 102q-87 0 -148.5 -64t-63.5 -168zM277 598v10q0 5 5 5h150q5 0 5 -5v-10q0 -5 -5 -5h-150q-5 0 -5 5z" glyph-name="uni1E21" horiz-adv-x="671" unicode="ḡ"/><glyph d="M816 0q-3 0 -5 4l-184 475l-208 -475q-2 -4 -5 -4h-35q-3 0 -5 4l-293 690q-3 6 4 6h55q3 0 5 -4l277 -643l196 450l-74 191q-2 6 6 6h52q3 0 5 -4l244 -641l265 641q2 4 3 4h16q4 0 1 -6l-289 -690l-2 -4h-29zM509 869q-6 6 2 6h29q4 0 6 -3l113 -124q4 -6 1 -6t-7 2z " glyph-name="Wgrave" horiz-adv-x="1212" unicode="Ẁ"/><glyph d="M666 0q-3 0 -5 4l-177 397l-173 -397q-2 -4 -5 -4h-35q-3 0 -5 4l-195 490q-3 6 4 6h48q3 0 5 -4l182 -445l162 375l-30 68q-3 6 4 6h47q3 0 5 -4l200 -443l177 443q2 4 5 4h14q7 0 4 -6l-198 -490q-2 -4 -5 -4h-29zM395 667q-6 6 2 6h29q4 0 6 -3l113 -124q4 -6 1 -6 t-7 2z" glyph-name="wgrave" horiz-adv-x="969" unicode="ẁ"/><glyph d="M816 0q-3 0 -5 4l-184 475l-208 -475q-2 -4 -5 -4h-35q-3 0 -5 4l-293 690q-3 6 4 6h55q3 0 5 -4l277 -643l196 450l-74 191q-2 6 6 6h52q3 0 5 -4l244 -641l265 641q2 4 3 4h16q4 0 1 -6l-289 -690l-2 -4h-29zM545 743q-3 0 1 6l113 124q1 3 6 3h29q8 0 2 -6l-144 -125 q-4 -2 -7 -2z" glyph-name="Wacute" horiz-adv-x="1212" unicode="Ẃ"/><glyph d="M666 0q-3 0 -5 4l-177 397l-173 -397q-2 -4 -5 -4h-35q-3 0 -5 4l-195 490q-3 6 4 6h48q3 0 5 -4l182 -445l162 375l-30 68q-3 6 4 6h47q3 0 5 -4l200 -443l177 443q2 4 5 4h14q7 0 4 -6l-198 -490q-2 -4 -5 -4h-29zM400 545q-4 0 1 6l113 124q2 3 6 3h29q8 0 2 -6 l-144 -125q-4 -2 -7 -2z" glyph-name="wacute" horiz-adv-x="969" unicode="ẃ"/><glyph d="M816 0q-3 0 -5 4l-184 475l-208 -475q-2 -4 -5 -4h-35q-3 0 -5 4l-293 690q-3 6 4 6h55q3 0 5 -4l277 -643l196 450l-74 191q-2 6 6 6h52q3 0 5 -4l244 -641l265 641q2 4 3 4h16q4 0 1 -6l-289 -690l-2 -4h-29zM475 788q0 14 10.5 23.5t25.5 9.5q16 0 26.5 -9.5 t10.5 -23.5q0 -13 -10.5 -22.5t-26.5 -9.5q-15 0 -25.5 9.5t-10.5 22.5zM626 788q0 14 10.5 23.5t25.5 9.5q16 0 26.5 -9.5t10.5 -23.5q0 -13 -10.5 -22.5t-26.5 -9.5q-15 0 -25.5 9.5t-10.5 22.5z" glyph-name="Wdieresis" horiz-adv-x="1212" unicode="Ẅ"/><glyph d="M666 0q-3 0 -5 4l-177 397l-173 -397q-2 -4 -5 -4h-35q-3 0 -5 4l-195 490q-3 6 4 6h48q3 0 5 -4l182 -445l162 375l-30 68q-3 6 4 6h47q3 0 5 -4l200 -443l177 443q2 4 5 4h14q7 0 4 -6l-198 -490q-2 -4 -5 -4h-29zM369 596q0 14 10.5 23.5t25.5 9.5q16 0 26.5 -9.5 t10.5 -23.5q0 -13 -10.5 -22.5t-26.5 -9.5q-15 0 -25.5 9.5t-10.5 22.5zM520 596q0 14 10.5 23.5t25.5 9.5q16 0 26.5 -9.5t10.5 -23.5q0 -13 -10.5 -22.5t-26.5 -9.5q-15 0 -25.5 9.5t-10.5 22.5z" glyph-name="wdieresis" horiz-adv-x="969" unicode="ẅ"/><glyph d="M384 -14q-58 -3 -109 13t-82 43q-3 3 -1 7l2 3q3 3 7 1q57 -40 153 -40q78 0 130 52.5t52 131.5q0 105 -66.5 157.5t-185.5 50.5l-63 -1q-5 -2 -5 4v7q0 1 3 4l226 270h-310v-684q0 -5 -5 -5h-45q-5 0 -5 5v645q0 47 44 50h2h331h1q30 -2 37.5 -19.5t-13.5 -41.5 l-193 -219q154 0 229.5 -62.5t75.5 -156.5q0 -88 -60 -149.5t-150 -65.5z" glyph-name="uni1E9E" horiz-adv-x="674" unicode="ẞ"/><glyph d="M80 695q0 5 5 5h436q5 0 5 -5v-1q0 -5 -5 -5h-386v-279h306q5 0 5 -5v-1q0 -5 -5 -5h-306v-388h406q5 0 5 -5v-1q0 -5 -5 -5h-456q-5 0 -5 5v690zM201 794q-4 4 0 8q30 26 56 33.5t43 0t35 -19t33.5 -22.5t38 -9.5t48.5 19.5q5 3 7 -1t-2 -9q-27 -27 -52 -35.5 t-43.5 -1.5t-38 17.5t-36.5 22t-38.5 11.5t-43.5 -14q-4 -3 -7 0z" glyph-name="uni1EBC" horiz-adv-x="626" unicode="Ẽ"/><glyph d="M610 263q0 -5 -5 -5h-477v-10q-2 -102 61.5 -173t160.5 -71q71 0 129 39t83 96q3 4 6 4h26q6 0 4 -6q-30 -66 -100.5 -109t-147.5 -43q-120 0 -200 74.5t-80 188.5q0 115 78 189t196 74q112 0 188 -70t78 -178zM130 276h420q-5 95 -63 157t-143 63q-82 1 -142.5 -61 t-71.5 -159zM219 602q-4 4 0 8q30 26 56 33.5t43 0t35 -19t33.5 -22.5t38 -9.5t48.5 19.5q5 3 7 -1t-2 -9q-27 -27 -52 -35.5t-43.5 -1.5t-38 17.5t-36.5 22t-38.5 11.5t-43.5 -14q-4 -3 -7 0z" glyph-name="uni1EBD" horiz-adv-x="650" unicode="ẽ"/><glyph d="M84 694q-4 6 3 6h56q5 0 6 -3l237 -330l239 330q1 3 6 3h14q8 0 4 -6l-256 -350v-339q0 -5 -5 -5h-45q-5 0 -5 5v333zM296 853q-6 6 2 6h29q5 0 6 -3l113 -124q4 -6 1 -6t-7 2z" glyph-name="Ygrave" horiz-adv-x="733" unicode="Ỳ"/><glyph d="M319 -233q-95 0 -172 80q-3 3 0 6l12 10q3 3 6 -1q68 -71 154 -71q97 0 152 59t55 172v115q-25 -69 -81.5 -109.5t-127.5 -40.5q-113 0 -180 73.5t-67 196.5v240q0 5 6 5h-1q27 -1 38.5 -5t11.5 -18v-222q0 -111 53 -179.5t139 -68.5q91 0 150 73.5t59 157.5v255q0 5 5 5 h45q5 0 5 -5v-472q0 -122 -72.5 -189t-189.5 -67zM75 502zM243 694q-6 6 2 6h29q4 0 6 -3l113 -124q5 -6 1 -6q-3 0 -7 2z" glyph-name="ygrave" horiz-adv-x="661" unicode="ỳ"/><glyph d="M84 694q-4 6 3 6h56q5 0 6 -3l237 -330l239 330q1 3 6 3h14q8 0 4 -6l-256 -350v-339q0 -5 -5 -5h-45q-5 0 -5 5v333zM259 785q29 28 54.5 36.5t43 1t36 -18t34.5 -21t38.5 -8.5t47.5 21q5 4 7 0t-2 -9q-26 -28 -50.5 -37.5t-43 -3t-39 16.5t-37.5 20t-38.5 10t-42.5 -15 q-4 -3 -7 -1q-5 4 -1 8z" glyph-name="uni1EF8" horiz-adv-x="733" unicode="Ỹ"/><glyph d="M319 -233q-95 0 -172 80q-3 3 0 6l12 10q3 3 6 -1q68 -71 154 -71q97 0 152 59t55 172v115q-25 -69 -81.5 -109.5t-127.5 -40.5q-113 0 -180 73.5t-67 196.5v240q0 5 6 5h-1q27 -1 38.5 -5t11.5 -18v-222q0 -111 53 -179.5t139 -68.5q91 0 150 73.5t59 157.5v255q0 5 5 5 h45q5 0 5 -5v-472q0 -122 -72.5 -189t-189.5 -67zM75 502zM193 612q29 28 54.5 36.5t43 1t36 -18t34.5 -21t38.5 -8.5t47.5 21q5 3 7 0q2 -4 -2 -9q-26 -28 -50.5 -37.5t-43 -3t-39 16.5t-37.5 20t-38.5 10t-42.5 -15q-4 -3 -7 -1q-5 4 -1 8z" glyph-name="uni1EF9" horiz-adv-x="661" unicode="ỹ"/><glyph d="M100 282v16h451v-16h-451z" glyph-name="endash" horiz-adv-x="651" unicode="–"/><glyph d="M205 282q-5 0 -5 5v6q0 5 5 5h641q5 0 5 -5v-6q0 -5 -5 -5h-641z" glyph-name="emdash" horiz-adv-x="1051" unicode="—"/><glyph d="M117 656q4 3 7 -1q3 -3 -1 -8q-28 -35 -20 -99q2 -5 -4 -5h-34q-5 0 -5 4q-3 67 57 109z" glyph-name="quoteleft" horiz-adv-x="184" unicode="‘"/><glyph d="M67 544q-4 -3 -6 1l-1 1q-1 2 1 7q28 35 20 99q-2 5 4 5h34q5 0 5 -4q3 -67 -57 -109z" glyph-name="quoteright" horiz-adv-x="184" unicode="’"/><glyph d="M116 -87q-4 -3 -6 1l-1 1q-1 3 1 7q28 35 20 99q-2 5 4 5h34q5 0 5 -4q3 -67 -57 -109z" glyph-name="quotesinglbase" horiz-adv-x="162" unicode="‚"/><glyph d="M135 544q-3 -2 -6 1l-1 1q-2 2 1 7q28 35 20 99q-2 5 4 5h34q5 0 5 -4q3 -67 -57 -109zM60 546q-1 2 1 7q28 35 20 99q-2 5 4 5h34q5 0 5 -4q3 -67 -57 -109q-4 -3 -6 1z" glyph-name="quotedblleft" horiz-adv-x="252" unicode="“"/><glyph d="M135 544q-3 -2 -6 1l-1 1q-2 2 1 7q28 35 20 99q-2 5 4 5h34q5 0 5 -4q3 -67 -57 -109zM60 546q-1 2 1 7q28 35 20 99q-2 5 4 5h34q5 0 5 -4q3 -67 -57 -109q-4 -3 -6 1z" glyph-name="quotedblright" horiz-adv-x="252" unicode="”"/><glyph d="M116 -87q-4 -3 -6 1l-1 1q-1 3 1 7q28 35 20 99q-2 5 4 5h34q5 0 5 -4q3 -67 -57 -109z" glyph-name="quotedblbase" horiz-adv-x="273" unicode="„"/><glyph d="M148 173q-42 0 -70 29.5t-28 73.5q0 41 28 70.5t70 29.5t71.5 -29.5t29.5 -70.5q0 -44 -29 -73.5t-72 -29.5z" glyph-name="bullet" horiz-adv-x="299" unicode="•"/><glyph d="M144 1q-19 0 -31.5 12.5t-12.5 29.5q0 18 12.5 30t31.5 12t32 -12t13 -30t-13 -30t-32 -12z" glyph-name="ellipsis" horiz-adv-x="297" unicode="…"/><glyph d="M50 -200l576 900h32l-578 -900h-30z" glyph-name="fraction" horiz-adv-x="738" unicode="⁄"/><glyph d="M50 317v8h76q0 5 -0.5 16t-0.5 17q0 12 2 32h-77v7h77q14 117 101 193t210 76q82 0 148.5 -40.5t105.5 -113.5q2 -5 -3 -5h-4q-4 0 -5 2q-40 62 -104 97t-138 35q-104 0 -177 -68.5t-86 -175.5h314v-7h-314q-2 -20 -2 -32q0 -22 1 -33h315v-8h-314q13 -113 86 -186 t176 -73q66 0 130 30t113 83q2 2 5 2q8 0 3 -5q-45 -61 -111.5 -95.5t-139.5 -34.5q-122 0 -209 79t-101 200h-77z" glyph-name="Euro" horiz-adv-x="743" unicode="€"/><glyph d="M62 714q-2 0 -2 2v4q0 1 1 1h68v-5q0 -2 -2 -2h-26v-72h-14v72h-25zM148 642v79h10q2 0 2 -1l36 -66l29 66l2 1h10q1 0 1 -1v-78q0 -2 -1 -2h-10q-1 1 -1 2v67l-29 -65l-2 -4v-1h-1l-40 70v-67q0 -1 -3 -1t-3 1z" glyph-name="trademark" horiz-adv-x="298" unicode="™"/><glyph d="M53 250q-9 8 0 17l207 166h18l-165 -167l455 1v-15l-456 -1l166 -168h-18z" glyph-name="arrowleft" horiz-adv-x="618" unicode="←"/><glyph d="M216 0l1 455l-167 -165v18l166 207q9 9 17 0l167 -207v-18l-168 166l-1 -456h-15z" glyph-name="arrowup" horiz-adv-x="450" unicode="↑"/><glyph d="M340 83l166 168l-456 1v15l455 -1l-165 167h18l207 -166q9 -9 0 -17l-207 -167h-18z" glyph-name="arrowright" horiz-adv-x="618" unicode="→"/><glyph d="M216 3l-166 207v18l167 -165l-1 455h15l1 -456l168 166v-18l-167 -207q-8 -9 -17 0z" glyph-name="arrowdown" horiz-adv-x="450" unicode="↓"/><glyph d="M53 250q-9 8 0 17l207 166h18l-164 -166h440l-164 166h18l207 -166q9 -9 0 -17l-207 -167h-18l166 168h-444l166 -168h-18z" glyph-name="arrowboth" horiz-adv-x="668" unicode="↔"/><glyph d="M416 71l-323 321l-2 -236l-12 13l-29 263q0 13 13 13l263 -29l13 -12l-234 -2l321 -321z" glyph-name="uni2196" horiz-adv-x="476" unicode="↖"/><glyph d="M61 72l-11 10l322 321l-234 2l13 12l263 29q13 0 13 -13l-29 -263l-12 -13l-2 236z" glyph-name="uni2197" horiz-adv-x="477" unicode="↗"/><glyph d="M413 72l-264 28l-13 13l236 1l-322 323l11 11l321 -323l1 235l13 -13l28 -263q0 -6 -3 -9.5t-8 -2.5z" glyph-name="uni2198" horiz-adv-x="474" unicode="↘"/><glyph d="M63 72q-13 0 -13 13l29 263l12 13l2 -234l321 322l10 -11l-321 -323l236 -2l-13 -12z" glyph-name="uni2199" horiz-adv-x="474" unicode="↙"/><glyph d="M50 373v15h460v-15h-460z" glyph-name="minus" horiz-adv-x="560" unicode="−"/><glyph d="M283 -9q-87 0 -152 56t-67 138q0 5 5 5h28q5 0 5 -5q2 -76 52 -127t129 -51q87 0 130.5 55.5t43.5 147.5v485q0 5 5 5h45q5 0 5 -5v-485q0 -100 -64.5 -159.5t-164.5 -59.5zM249 747q-3 0 1 6l113 124q1 3 6 3h29q8 0 2 -6l-144 -125q-4 -2 -7 -2z" glyph-name="glyph340" horiz-adv-x="592"/><glyph d="M85 0q-5 0 -5 5v690q0 5 5 5h45q5 0 5 -5v-684h406q5 0 5 -5v-1q0 -5 -5 -5h-456zM260 -171q-6 4 1 8q11 10 14.5 22.5t2 21t-5.5 22t-5 19.5q-2 5 4 5l43 1q5 0 5 -4q2 -38 -10.5 -61t-48.5 -34z" glyph-name="glyph341" horiz-adv-x="626"/><glyph d="M80 695q0 5 5 5h61q4 0 6 -3l469 -614v612q0 5 5 5h4q5 0 5 -5v-690q0 -5 -5 -5h-19l-517 682v-677q0 -5 -5 -5h-4q-5 0 -5 5v690zM320 -171q-6 4 1 8q11 10 14.5 22.5t2 21t-5.5 22t-5 19.5q-2 5 4 5l43 1q5 0 5 -4q2 -38 -10.5 -61t-48.5 -34z" glyph-name="glyph342" horiz-adv-x="715"/><glyph d="M135 5q0 -5 -5 -5q-27 1 -38.5 5t-11.5 18v472q0 5 5 5h45q5 0 5 -5v-490zM70 599q0 14 10.5 23.5t25.5 9.5q16 0 26.5 -9.5t10.5 -23.5q0 -13 -10.5 -22.5t-26.5 -9.5q-15 0 -25.5 9.5t-10.5 22.5z" glyph-name="i.aalt" horiz-adv-x="225"/><glyph d="M85 -259q-5 0 -5 5t5 5q122 11 122 158v568q0 14 11.5 18t38.5 5q5 0 5 -5v-550q0 -91 -47.5 -145t-129.5 -59zM158 567q-4 0 1 6l113 124q2 3 6 3h29q8 0 2 -6l-144 -125q-4 -2 -7 -2z" glyph-name="glyph344" horiz-adv-x="342"/><glyph d="M70 725q0 5 5 5h45q5 0 5 -5v-720q0 -5 -5 -5q-27 1 -38.5 5t-11.5 18v702zM63 -171q-6 4 1 8q11 10 14.5 22.5t2 21t-5.5 22t-5 19.5q-2 5 4 5l43 1q5 0 5 -4q2 -38 -10.5 -61t-48.5 -34z" glyph-name="glyph345" horiz-adv-x="225"/><glyph d="M70 495q0 5 5 5q27 -1 38.5 -5t11.5 -18v-116q25 69 81.5 108.5t128.5 39.5q114 0 180.5 -70.5t66.5 -193.5v-240q0 -5 -5 -5q-27 1 -38.5 5t-11.5 18v222q0 110 -52.5 173.5t-139.5 63.5q-90 0 -149.5 -64t-60.5 -150v-263q0 -5 -5 -5h-45q-5 0 -5 5v490zM295 -169 q-6 4 1 8q11 10 14.5 22.5t2 21t-5.5 22t-5 19.5q-2 5 4 5l43 1q5 0 5 -4q2 -38 -10.5 -61t-48.5 -34z" glyph-name="glyph346" horiz-adv-x="642"/><glyph d="M251 584q-2 40 10 63.5t49 35.5q6 -4 -1 -8q-15 -14 -16.5 -29t5 -34.5t6.5 -26.5z" glyph-name="glyph347"/><glyph d="M50 373v10h660v-10h-660z" glyph-name="glyph348"/><glyph d="M50 150l458 300h14l-459 -300h-13z" glyph-name="glyph349"/><glyph d="M50 0l558 700h14l-559 -700h-13z" glyph-name="glyph350"/><glyph d="M53 -171q-6 4 1 8q11 10 14.5 22.5t2 21t-5.5 22t-5 19.5q-2 5 4 5l43 1q5 0 5 -4q2 -38 -10.5 -61t-48.5 -34z" glyph-name="glyph351"/></font>
</defs>
</svg>
